<?xml version="1.0" encoding="UTF-8"?>
<svg version="1.1" xmlns="http://www.w3.org/2000/svg" width="1280" height="1024">
<path d="M0 0 C422.4 0 844.8 0 1280 0 C1280 337.92 1280 675.84 1280 1024 C857.6 1024 435.2 1024 0 1024 C0 686.08 0 348.16 0 0 Z " fill="#021930" transform="translate(0,0)"/>
<path d="M0 0 C4.05812011 0.01052217 8.11624741 0.01485715 12.17437744 0.01983643 C20.03377066 0.03032984 27.8931306 0.0472238 35.75250244 0.06866455 C35.75250244 1.38866455 35.75250244 2.70866455 35.75250244 4.06866455 C36.64195557 4.22528564 36.64195557 4.22528564 37.54937744 4.3850708 C44.82453859 6.64243463 50.30958616 16.33326353 54.75250244 22.06866455 C57.81215518 20.72448468 59.68720274 19.30783908 61.84625244 16.7678833 C62.40183838 16.12012939 62.95742432 15.47237549 63.52984619 14.80499268 C64.09832275 14.12887939 64.66679932 13.45276611 65.25250244 12.75616455 C66.10521729 11.75939697 66.10521729 11.75939697 66.97515869 10.74249268 C70.36817201 6.81238295 70.36817201 6.81238295 73.20922852 2.48458862 C77.11496239 -1.22557267 80.82999282 -0.59373214 86.02886963 -0.4989624 C87.59519386 -0.5000576 87.59519386 -0.5000576 89.19316101 -0.50117493 C92.64576096 -0.4976906 96.09701307 -0.45878729 99.54937744 -0.4196167 C101.94261946 -0.41029164 104.33587101 -0.40317408 106.72912598 -0.3981781 C113.0291172 -0.37908446 119.32853234 -0.32996212 125.6282959 -0.2746582 C132.05633755 -0.22351742 138.48447226 -0.20067504 144.91265869 -0.17547607 C157.52618577 -0.12184664 170.13931347 -0.03746498 182.75250244 0.06866455 C178.62912458 8.65743074 171.29021359 15.65375663 164.84063721 22.58624268 C161.84915562 25.81914939 159.01526184 29.1349493 156.25250244 32.56866455 C152.61750855 37.08644268 148.78539954 41.34684971 144.83843994 45.5881958 C141.84808887 48.82078202 139.01463915 52.13572321 136.25250244 55.56866455 C132.61686194 60.08724631 128.78413842 64.34849784 124.83624268 68.59039307 C121.86534616 71.80165506 119.05289168 75.0949427 116.31500244 78.50616455 C112.47504444 83.28035205 108.39193113 87.75307961 104.20513916 92.21929932 C100.18442597 96.53381902 96.46538229 101.04449793 92.77203369 105.6428833 C90.46650685 108.41219117 87.99589435 110.91348812 85.41265869 113.42022705 C82.33994773 116.47124828 79.56680372 119.78087969 76.75250244 123.06866455 C75.84510881 124.12348837 74.93754336 125.17816442 74.02984619 126.23272705 C73.53984131 126.8048291 73.04983643 127.37693115 72.54498291 127.96636963 C71.50901459 129.16844049 70.4649068 130.36354027 69.41314697 131.55181885 C66.79332751 134.53873399 64.42798562 137.47542309 62.34234619 140.8616333 C57.7338785 147.95202098 57.7338785 147.95202098 53.75250244 150.06866455 C46.19548646 151.60524877 38.36719872 150.87975977 30.75250244 150.06866455 C31.68005766 148.8018199 32.61189722 147.53811161 33.54547119 146.2756958 C34.06391602 145.57162598 34.58236084 144.86755615 35.11651611 144.14215088 C36.65822026 142.18815993 38.26954068 140.47580114 40.06500244 138.75616455 C43.89434138 135.05334562 47.16130125 130.97127314 50.49859619 126.82647705 C52.52582024 124.34602613 54.60802738 121.94762495 56.75250244 119.56866455 C59.66669603 116.33131286 62.44985256 113.01717298 65.19000244 109.63116455 C68.82344049 105.15013203 72.61742117 100.86271206 76.50250244 96.59991455 C78.83112297 93.98021645 81.04813191 91.29351145 83.25250244 88.56866455 C86.86399378 84.10445998 90.63910939 79.83864341 94.50640869 75.5960083 C96.81437842 72.99904062 99.00806107 70.33462442 101.19000244 67.63116455 C105.05191919 62.85582053 109.12924468 58.3319877 113.28765869 53.8147583 C115.67957541 51.14991289 117.94505128 48.4203463 120.19000244 45.63116455 C124.24471365 40.60045206 128.54819333 35.88284208 132.97906494 31.18585205 C135.27280406 28.68737636 137.35227908 26.05732878 139.42584229 23.37384033 C140.05050385 22.56665558 140.67516541 21.75947083 141.3187561 20.92782593 C141.7918924 20.31430267 142.26502869 19.70077942 142.75250244 19.06866455 C135.24975722 18.92045017 127.74866712 18.83852573 120.24450207 18.83806992 C116.75832513 18.83584211 113.27527081 18.81195516 109.78985596 18.73614502 C93.90300403 17.56534437 93.90300403 17.56534437 79.57818604 22.62237549 C76.70885505 25.41693015 74.74830854 28.60125787 72.75250244 32.06866455 C71.19778875 34.00861839 69.61800755 35.92903527 68.00250244 37.81866455 C66.92935791 39.15091064 66.92935791 39.15091064 65.83453369 40.5100708 C62.90192588 44.11393219 59.84325613 47.6002625 56.75250244 51.06866455 C51.72822118 47.33266054 48.09496346 42.93828945 44.19781494 38.0569458 C40.92025085 34.05161588 37.43695355 30.27301742 33.91656494 26.4788208 C31.75250244 24.06866455 31.75250244 24.06866455 30.47703552 21.94641113 C28.87217232 19.82129799 28.87217232 19.82129799 26.15187073 19.58764648 C25.1104039 19.59652893 24.06893707 19.60541138 22.99591064 19.61456299 C21.81491287 19.61486511 20.6339151 19.61516724 19.41712952 19.61547852 C18.14206039 19.63612366 16.86699127 19.6567688 15.55328369 19.67803955 C14.24796188 19.68369934 12.94264008 19.68935913 11.59776306 19.69519043 C8.13031298 19.71045063 4.66353495 19.74973423 1.1963501 19.79400635 C-2.34278268 19.83495164 -5.88202424 19.85319976 -9.42132568 19.87335205 C-16.36365875 19.91622923 -23.30554588 19.9844844 -30.24749756 20.06866455 C-29.62636078 20.75618805 -29.005224 21.44371155 -28.36526489 22.15206909 C-27.55215851 23.05347626 -26.73905212 23.95488342 -25.90130615 24.88360596 C-25.09454437 25.77737946 -24.28778259 26.67115295 -23.45657349 27.5920105 C-21.17708509 30.14760585 -18.999974 32.76043916 -16.87249756 35.44366455 C-13.19177909 39.99646962 -9.32101108 44.30283866 -5.33612061 48.58551025 C-1.53685139 52.69281038 1.98872293 56.98458498 5.49859619 61.34210205 C9.40958229 66.07324294 13.60169488 70.5485924 17.75250244 75.06866455 C19.11321359 76.56273033 20.46816536 78.06207992 21.81500244 79.56866455 C22.362854 80.17710205 22.91070557 80.78553955 23.47515869 81.41241455 C24.75250244 83.06866455 24.75250244 83.06866455 25.75250244 86.06866455 C25.09250244 86.06866455 24.43250244 86.06866455 23.75250244 86.06866455 C23.38511963 86.89817627 23.38511963 86.89817627 23.01031494 87.7444458 C18.98601477 95.18065265 12.41428001 101.50082848 6.77984619 107.7600708 C4.55718289 110.29108046 2.43393608 112.88779421 0.31500244 115.50616455 C-3.31726736 119.98575629 -7.11009074 124.27178855 -10.99359131 128.5335083 C-13.34288853 131.17595873 -15.58319358 133.88490029 -17.80999756 136.63116455 C-18.57312256 137.53608643 -19.33624756 138.4410083 -20.12249756 139.37335205 C-22.28761334 141.97253225 -22.28761334 141.97253225 -23.74749756 144.76397705 C-25.60109879 147.72047102 -27.3260506 149.16256835 -30.24749756 151.06866455 C-33.05975342 151.58380127 -33.05975342 151.58380127 -36.08734131 151.62335205 C-37.17200684 151.64115723 -38.25667236 151.6589624 -39.37420654 151.67730713 C-44.34206689 151.60935275 -49.29101342 151.40962683 -54.24749756 151.06866455 C-50.84387192 146.41493511 -47.38466224 141.96783021 -43.43499756 137.75616455 C-40.11490066 134.15898058 -36.93510378 130.51219535 -33.87249756 126.69366455 C-30.48363787 122.49052055 -26.9351049 118.50663279 -23.24749756 114.56866455 C-18.758219 109.77421395 -14.52649474 104.84920872 -10.43109131 99.70928955 C-7.40553598 96.05047846 -4.12181486 92.65235243 -0.80218506 89.2600708 C0.93704559 87.24880957 0.93704559 87.24880957 0.77593994 85.09991455 C-0.64977435 82.2702526 -2.56062994 80.29765084 -4.74749756 78.00616455 C-8.2108962 74.31952087 -11.51876264 70.58180124 -14.68499756 66.63116455 C-18.3432077 62.09550012 -22.19492721 57.81165285 -26.16131592 53.54937744 C-29.94240314 49.46205449 -33.44439722 45.18823212 -36.93499756 40.84991455 C-39.44722521 37.82845157 -42.07174289 34.9444886 -44.74749756 32.06866455 C-49.00882119 27.48238091 -53.04316888 22.76759807 -56.96624756 17.8850708 C-58.63218116 15.82832743 -60.31423096 13.79888959 -62.02874756 11.7835083 C-62.49208496 11.2369458 -62.95542236 10.6903833 -63.43280029 10.1272583 C-64.74454071 8.58321356 -66.0603668 7.04264256 -67.37640381 5.5022583 C-69.24749756 3.06866455 -69.24749756 3.06866455 -69.24749756 1.06866455 C-46.15790756 0.23798426 -23.10348834 -0.06666027 0 0 Z " fill="#A4CC29" transform="translate(120.24749755859375,420.93133544921875)"/>
<path d="M0 0 C11.075625 -0.1546875 11.075625 -0.1546875 22.375 -0.3125 C24.6854834 -0.35802002 26.9959668 -0.40354004 29.37646484 -0.45043945 C31.23794103 -0.46506251 33.09943339 -0.47779886 34.9609375 -0.48828125 C35.90300049 -0.51386108 36.84506348 -0.53944092 37.81567383 -0.5657959 C45.52332408 -0.57078919 52.0431422 1.47392371 57.88412476 6.67900085 C62.92345735 11.9891616 66.15086838 18.53159832 66.5 25.875 C66.37304032 29.94405775 65.29954326 33.06441647 63.75 36.8125 C62.61181767 39.50192741 62.61181767 39.50192741 62 42 C63.46808501 44.81501244 63.46808501 44.81501244 66 47 C69.92541582 54.71063822 70.60184165 63.53445695 68.15625 71.87890625 C64.51135893 79.94445912 58.20009714 85.73782993 50 89 C46.15572179 89.4086038 42.33870317 89.34948137 38.4765625 89.29296875 C37.49969482 89.28994751 36.52282715 89.28692627 35.51635742 89.28381348 C31.88579666 89.26818029 28.25538713 89.22629646 24.625 89.1875 C16.49875 89.125625 8.3725 89.06375 0 89 C0 59.63 0 30.26 0 0 Z " fill="#FCFDFD" transform="translate(852,423)"/>
<path d="M0 0 C48.77192982 0 48.77192982 0 59.4375 8.5625 C64.80481078 14.51248335 68.16621541 22.02175784 68.5625 30.0625 C67.96866879 39.56379943 64.19307175 46.53538874 57.8046875 53.41796875 C56 55 56 55 54 55 C56.08019127 58.75427725 58.16152674 62.50791716 60.24389648 66.26098633 C60.95123798 67.53620491 61.65827375 68.81159314 62.36499023 70.0871582 C63.38443774 71.92704902 64.40500544 73.76631462 65.42578125 75.60546875 C66.03848877 76.71043701 66.65119629 77.81540527 67.2824707 78.95385742 C68.38947739 80.91720105 69.5341606 82.85999933 70.72338867 84.7746582 C72 87 72 87 72 89 C63.75 89 55.5 89 47 89 C46.08476563 87.30230469 45.16953125 85.60460937 44.2265625 83.85546875 C43.02611823 81.63277115 41.8255932 79.41011716 40.625 77.1875 C40.02171875 76.06794922 39.4184375 74.94839844 38.796875 73.79492188 C38.21679688 72.72177734 37.63671875 71.64863281 37.0390625 70.54296875 C36.50490723 69.55321045 35.97075195 68.56345215 35.42041016 67.54370117 C33.97636924 64.87935012 33.97636924 64.87935012 32 62 C28.37 61.67 24.74 61.34 21 61 C21 70.24 21 79.48 21 89 C14.07 89 7.14 89 0 89 C0 59.63 0 30.26 0 0 Z " fill="#FCFDFD" transform="translate(624,423)"/>
<path d="M0 0 C0.92232422 0.03158203 1.84464844 0.06316406 2.79492188 0.09570312 C5.05415802 0.17764433 7.30660154 0.29221567 9.5625 0.4375 C8.14330508 4.89782688 5.69633525 7.76602416 2.5 11.0625 C-1.11616346 14.89134421 -4.58343373 18.7575279 -7.875 22.875 C-11.25888988 27.08363724 -14.81081272 31.06210991 -18.5 35 C-22.66198853 39.44810496 -26.57344797 43.9910161 -30.328125 48.79296875 C-34.36775284 53.85746513 -38.64506611 58.72396789 -42.87744141 63.62744141 C-44.8892843 65.96168291 -46.89233043 68.30337759 -48.89526367 70.64526367 C-55.16402092 77.9731213 -61.47508928 85.26384655 -67.79638672 92.54638672 C-70.51171216 95.67535293 -73.22449966 98.80651783 -75.9375 101.9375 C-79.26887384 105.78182051 -82.60063419 109.62580413 -85.93359375 113.46875 C-86.50980469 114.13326172 -87.08601563 114.79777344 -87.6796875 115.48242188 C-88.76937014 116.73907201 -89.85920146 117.99559325 -90.94921875 119.25195312 C-94.46023165 123.30138166 -97.94940015 127.36805018 -101.4375 131.4375 C-72.2325 131.9325 -72.2325 131.9325 -42.4375 132.4375 C-34.4375 148.4375 -34.4375 148.4375 -34.4375 150.4375 C-69.7475 150.4375 -105.0575 150.4375 -141.4375 150.4375 C-139.53226825 146.6270365 -137.76090956 144.44156118 -134.875 141.375 C-131.4421517 137.68386541 -128.15811908 133.93339741 -125 130 C-121.34178985 125.46433557 -117.49007035 121.1804883 -113.52368164 116.91821289 C-110.53323 113.68556025 -107.69970993 110.37053234 -104.9375 106.9375 C-101.3018595 102.41891824 -97.46913598 98.15766671 -93.52124023 93.91577148 C-90.55034372 90.7045095 -87.73788923 87.41122185 -85 84 C-81.15639943 79.22128372 -77.06789836 74.74592313 -72.87915039 70.27368164 C-69.76196055 66.92650673 -66.80176202 63.50744977 -63.9375 59.9375 C-60.11627028 55.17480789 -56.04553168 50.72151882 -51.87451172 46.26904297 C-48.79756386 42.96554738 -45.8808493 39.59329447 -43.0625 36.0625 C-38.78052058 30.72565339 -34.15671661 25.76523796 -29.46508789 20.79150391 C-26.41382246 17.55663798 -23.40067389 14.30961525 -20.5 10.9375 C-20.02167725 10.39464355 -19.54335449 9.85178711 -19.05053711 9.29248047 C-17.99591699 8.07967531 -16.96867867 6.84236128 -15.97412109 5.57983398 C-11.1042553 -0.08759117 -7.23761596 -0.47417066 0 0 Z " fill="#C0DB6D" transform="translate(223.4375,452.5625)"/>
<path d="M0 0 C1.11310547 0.04060547 2.22621094 0.08121094 3.37304688 0.12304688 C6.1074113 0.2286661 8.83264912 0.37613487 11.5625 0.5625 C9.85127436 4.19651577 7.76316113 6.68887103 5 9.625 C1.58641359 13.29500604 -1.67705183 17.02248885 -4.8125 20.9375 C-8.67733365 25.73098625 -12.78084674 30.22901522 -16.98901367 34.71728516 C-20.18181649 38.14283815 -23.19702746 41.6538118 -26.125 45.3125 C-29.65625833 49.71694221 -33.45682212 53.67572628 -37.48046875 57.62890625 C-39.70654655 59.82832443 -41.76703123 61.90493605 -43.4375 64.5625 C-43.19772108 68.78629791 -40.22356792 71.25314953 -37.4375 74.125 C-33.78054354 77.9953975 -30.26984708 81.90310301 -26.9375 86.0625 C-22.82097389 91.17495985 -18.4452116 95.98826554 -13.98828125 100.80078125 C-10.73096403 104.32746314 -7.57044567 107.92547549 -4.4375 111.5625 C-4.0245166 112.03848633 -3.6115332 112.51447266 -3.18603516 113.00488281 C4.9327898 122.36285165 12.79291697 131.91317914 20.5625 141.5625 C19.60520084 142.68838014 18.64662105 143.8131715 17.6875 144.9375 C17.15382813 145.56398438 16.62015625 146.19046875 16.0703125 146.8359375 C12.83510621 150.54050014 12.83510621 150.54050014 8.61157227 150.88134766 C6.8675688 150.92341462 5.12327422 150.95424456 3.37890625 150.9765625 C1.95813026 151.0056797 1.95813026 151.0056797 0.50865173 151.03538513 C-2.61913862 151.09623597 -5.74694778 151.1422608 -8.875 151.1875 C-11.03125719 151.2254234 -13.1875072 151.26375739 -15.34375 151.30249023 C-36.37414791 151.65774332 -57.40493316 151.66727597 -78.4375 151.5625 C-76.4375 145.5625 -76.4375 145.5625 -70.4375 133.5625 C-50.9675 133.2325 -31.4975 132.9025 -11.4375 132.5625 C-17.8725 125.1375 -17.8725 125.1375 -24.4375 117.5625 C-28.234375 113.16796875 -28.234375 113.16796875 -29.74511719 111.41894531 C-33.8466852 106.67312288 -37.9655646 101.95223109 -42.1875 97.3125 C-45.96445456 93.1509828 -49.49361967 88.82384533 -53.01953125 84.44921875 C-56.20202075 80.64976844 -59.56180625 77.03003314 -62.98388672 73.44580078 C-66.4375 69.77455917 -66.4375 69.77455917 -66.4375 67.5625 C-67.0975 67.5625 -67.7575 67.5625 -68.4375 67.5625 C-68.4375 66.9025 -68.4375 66.2425 -68.4375 65.5625 C-66.96875 64.15234375 -66.96875 64.15234375 -64.9375 62.5 C-56.92073576 55.82293717 -56.92073576 55.82293717 -51.52734375 47.140625 C-50.10888634 43.78513435 -47.87291231 41.51368477 -45.375 38.9375 C-41.73936276 35.08772183 -38.2520187 31.19815625 -34.9375 27.0625 C-30.49535564 21.53768246 -25.73440869 16.38683775 -20.8527832 11.25073242 C-19.33483519 9.52146179 -19.33483519 9.52146179 -17.98120117 7.2121582 C-13.06287175 -0.40551947 -8.70298659 -0.60430233 0 0 Z " fill="#B2D05B" transform="translate(307.4375,451.4375)"/>
<path d="M0 0 C34.98 0 69.96 0 106 0 C99.32116788 8.90510949 99.32116788 8.90510949 95.6875 12.8125 C92.5452813 16.24848206 89.54315664 19.74688038 86.625 23.375 C82.94298465 27.92940923 79.07099643 32.23747565 75.08422852 36.52124023 C72.1131325 39.73263407 69.30053412 43.02609763 66.5625 46.4375 C62.71954521 51.21541338 58.63168671 55.68994984 54.44384766 60.16162109 C50.52093146 64.37429105 46.88088976 68.76413555 43.27734375 73.25390625 C40.33790777 76.79837194 37.21506437 80.15763189 34.07910156 83.52636719 C31.1483573 86.69369206 28.37965128 89.9410675 25.6875 93.3125 C20.83047706 99.35096095 15.52791197 104.9331575 10.21875 110.5703125 C6.71055607 114.29676735 3.32236942 118.10726673 0 122 C-0.8981565 123.04451252 -1.79662434 124.08875737 -2.6953125 125.1328125 C-3.18926514 125.70942627 -3.68321777 126.28604004 -4.19213867 126.88012695 C-5.23384341 128.08867424 -6.28357836 129.29034448 -7.34106445 130.48510742 C-9.96030253 133.47135203 -12.32498332 136.40751594 -14.41015625 139.79296875 C-19.01862394 146.88335643 -19.01862394 146.88335643 -23 149 C-30.55701598 150.53658422 -38.38530372 149.81109522 -46 149 C-45.07244479 147.73315535 -44.14060522 146.46944706 -43.20703125 145.20703125 C-42.42936401 144.15092651 -42.42936401 144.15092651 -41.63598633 143.07348633 C-40.09428218 141.11949538 -38.48296176 139.40713659 -36.6875 137.6875 C-32.85816106 133.98468107 -29.59120119 129.90260859 -26.25390625 125.7578125 C-24.2266822 123.27736158 -22.14447506 120.8789604 -20 118.5 C-17.08580641 115.26264831 -14.30264988 111.94850843 -11.5625 108.5625 C-7.92906195 104.08146748 -4.13508128 99.79404751 -0.25 95.53125 C2.07862053 92.9115519 4.29562947 90.2248469 6.5 87.5 C10.11149134 83.03579543 13.88660694 78.76997886 17.75390625 74.52734375 C20.06187598 71.93037607 22.25555863 69.26595987 24.4375 66.5625 C28.29941675 61.78715598 32.37674224 57.26332315 36.53515625 52.74609375 C38.92707297 50.08124834 41.19254884 47.35168175 43.4375 44.5625 C47.46413525 39.56833401 51.73143808 34.88004209 56.12890625 30.21484375 C59.9283234 25.9605304 63.43678672 21.4540166 67 17 C47.2 17 27.4 17 7 17 C0 2 0 2 0 0 Z " fill="#C0DB6E" transform="translate(197,422)"/>
<path d="M0 0 C0.9583374 0.00523682 1.9166748 0.01047363 2.90405273 0.01586914 C4.45576172 0.02070313 4.45576172 0.02070313 6.03881836 0.02563477 C7.12743164 0.03401367 8.21604492 0.04239258 9.33764648 0.05102539 C10.97636719 0.05779297 10.97636719 0.05779297 12.64819336 0.06469727 C15.35723407 0.07652714 18.06615471 0.09384818 20.77514648 0.11352539 C24.52393233 8.8692075 27.90809648 17.72741787 31.15405273 26.67993164 C31.65274938 28.04899198 32.15169154 29.41796292 32.65086365 30.78684998 C33.95209752 34.3572594 35.25003968 37.92885634 36.54724121 41.50073242 C37.86011972 45.11393628 39.17617291 48.72598326 40.49194336 52.33813477 C45.26882218 65.45488166 45.26882218 65.45488166 47.55911255 71.77883911 C48.35915458 73.97276571 49.16917937 76.16308203 49.98995972 78.34933472 C50.35727203 79.33233551 50.72458435 80.3153363 51.10302734 81.328125 C51.42693954 82.18401718 51.75085175 83.03990936 52.08457947 83.92173767 C52.77514648 86.11352539 52.77514648 86.11352539 52.77514648 89.11352539 C45.18514648 89.11352539 37.59514648 89.11352539 29.77514648 89.11352539 C24.77514648 76.36352539 24.77514648 76.36352539 24.77514648 74.11352539 C9.43014648 74.60852539 9.43014648 74.60852539 -6.22485352 75.11352539 C-7.87485352 79.73352539 -9.52485352 84.35352539 -11.22485352 89.11352539 C-18.81485352 89.11352539 -26.40485352 89.11352539 -34.22485352 89.11352539 C-33.46572021 83.79959227 -32.4925488 79.53761272 -30.62719727 74.62915039 C-30.361026 73.91150009 -30.09485474 73.19384979 -29.82061768 72.45445251 C-28.9411928 70.08826593 -28.05189465 67.72592546 -27.16235352 65.36352539 C-26.54299647 63.70400854 -25.92427497 62.04425437 -25.30615234 60.38427734 C-23.98623167 56.8423863 -22.66237014 53.30199983 -21.33618164 49.76245117 C-19.13202288 43.87365738 -16.95108161 37.97637879 -14.77172852 32.07836914 C-13.67663952 29.11880383 -12.58113087 26.15939433 -11.48538208 23.20007324 C-10.76981377 21.26679129 -10.0548686 19.33327858 -9.34054565 17.39953613 C-8.33985393 14.69250571 -7.33557887 11.98683212 -6.33032227 9.28149414 C-5.87970428 8.05921364 -5.87970428 8.05921364 -5.41998291 6.8122406 C-2.9374608 0.14988689 -2.9374608 0.14988689 0 0 Z " fill="#FCFCFC" transform="translate(762.224853515625,422.886474609375)"/>
<path d="M0 0 C8.55411074 -1.59116643 17.64069972 -2.96138308 26 0 C33.95286618 6.86692705 39.72050647 18.1615194 43 28 C43.66 28 44.32 28 45 28 C45.21914063 27.34902344 45.43828125 26.69804687 45.6640625 26.02734375 C47.47972598 21.91290165 49.90146294 18.30860679 52.375 14.5625 C52.85710937 13.82451172 53.33921875 13.08652344 53.8359375 12.32617188 C54.78400402 10.87702128 55.74603041 9.43689521 56.72265625 8.00683594 C58.18478095 5.82551262 58.18478095 5.82551262 59.5234375 2.48828125 C62.60774434 -0.6106201 63.79527226 -0.42623259 68.078125 -0.5859375 C70.46945168 -0.54608206 72.86041461 -0.47456606 75.25 -0.375 C76.47203125 -0.34792969 77.6940625 -0.32085937 78.953125 -0.29296875 C81.97052741 -0.22224838 84.9843757 -0.12359116 88 0 C84.55522919 6.40963485 80.80700205 12.54505818 76.8125 18.625 C76.25167725 19.48875244 75.69085449 20.35250488 75.11303711 21.24243164 C72.42832773 25.36405989 69.7086769 29.4471379 66.859375 33.45703125 C66.3852417 34.13362793 65.9111084 34.81022461 65.42260742 35.50732422 C64.53736308 36.76360527 63.63710812 38.00948538 62.7199707 39.24267578 C61.36123426 41.09395346 61.36123426 41.09395346 60 44 C61.10590088 47.71655838 62.99249639 50.74246803 65.125 53.95703125 C65.7449585 54.89788574 66.36491699 55.83874023 67.00366211 56.80810547 C67.66245361 57.79955566 68.32124512 58.79100586 69 59.8125 C70.35660656 61.87294923 71.71206973 63.93415171 73.06640625 65.99609375 C73.7330127 67.0104248 74.39961914 68.02475586 75.08642578 69.06982422 C77.74734438 73.14437704 80.35663922 77.24937289 82.9375 81.375 C83.56495117 82.37237183 83.56495117 82.37237183 84.20507812 83.38989258 C87 87.87511682 87 87.87511682 87 89 C78.45756513 90.37781208 69.37850814 91.66565694 61 89 C52.82373396 82.39537675 48.75803086 71.54879523 45 62 C44.34 62 43.68 62 43 62 C42.67322266 62.97453125 42.67322266 62.97453125 42.33984375 63.96875 C40.50962254 68.10942539 38.05779535 71.73265708 35.5625 75.5 C34.58390813 76.98910564 33.6060248 78.47867718 32.62890625 79.96875 C32.19650635 80.62294922 31.76410645 81.27714844 31.31860352 81.95117188 C29.90232216 84.05520528 29.90232216 84.05520528 28.70947266 86.72143555 C27 89 27 89 24.27270508 89.56762695 C23.19915771 89.54144287 22.12561035 89.51525879 21.01953125 89.48828125 C19.85615234 89.47216797 18.69277344 89.45605469 17.49414062 89.43945312 C16.27919922 89.39755859 15.06425781 89.35566406 13.8125 89.3125 C12.58595703 89.28994141 11.35941406 89.26738281 10.09570312 89.24414062 C7.06258441 89.18513053 4.03189778 89.10284592 1 89 C2.40363788 85.1563324 4.19931336 81.90125063 6.4140625 78.46484375 C7.09339844 77.40716797 7.77273438 76.34949219 8.47265625 75.25976562 C9.18292969 74.16341797 9.89320313 73.06707031 10.625 71.9375 C11.31207031 70.86822266 11.99914062 69.79894531 12.70703125 68.69726562 C13.39410156 67.63056641 14.08117187 66.56386719 14.7890625 65.46484375 C15.47516602 64.39862793 16.16126953 63.33241211 16.86816406 62.23388672 C18.32833632 60.01887965 19.80331361 57.8490999 21.34277344 55.69189453 C22.08301758 54.6398584 22.82326172 53.58782227 23.5859375 52.50390625 C24.26446777 51.56490479 24.94299805 50.62590332 25.64208984 49.65844727 C27.2161824 47.11781565 27.2161824 47.11781565 26.88452148 44.44775391 C25.93164057 41.81082758 24.7842432 39.68687879 23.26171875 37.33203125 C22.69404785 36.44676758 22.12637695 35.56150391 21.54150391 34.64941406 C20.92968262 33.71323242 20.31786133 32.77705078 19.6875 31.8125 C19.06536621 30.84666992 18.44323242 29.88083984 17.80224609 28.88574219 C13.14651286 21.6828891 8.40240804 14.53723097 3.55737305 7.46020508 C0 2.21407053 0 2.21407053 0 0 Z " fill="#FCFCFC" transform="translate(397,423)"/>
<path d="M0 0 C18.48 0 36.96 0 56 0 C56 6.93 56 13.86 56 21 C44.78 21 33.56 21 22 21 C22 25.29 22 29.58 22 34 C32.23 34 42.46 34 53 34 C53 40.6 53 47.2 53 54 C42.77 54 32.54 54 22 54 C22 58.95 22 63.9 22 69 C33.55 69 45.1 69 57 69 C57 75.93 57 82.86 57 90 C38.19 90 19.38 90 0 90 C0 60.3 0 30.6 0 0 Z " fill="#FBFBFB" transform="translate(1172,423)"/>
<path d="M0 0 C7.92 0 15.84 0 24 0 C30 10.66666667 36 21.33333333 42 32 C46.28818561 25.34564041 50.07111308 18.47391185 53.8125 11.5 C54.40998047 10.39140625 55.00746094 9.2828125 55.62304688 8.140625 C57.08439805 5.42835722 58.54252825 2.71435441 60 0 C68.25 0 76.5 0 85 0 C80.34273492 9.50462261 75.49777542 18.88677459 70.49032593 28.2114563 C69.49468101 30.07244185 68.50782839 31.93786987 67.52270508 33.80444336 C62.16109613 43.92372418 62.16109613 43.92372418 59.2890625 48.046875 C51.14663043 60.33401076 52.85787623 75.77874052 53 90 C45.74 90 38.48 90 31 90 C31.06703125 87.95683594 31.1340625 85.91367187 31.203125 83.80859375 C31.539267 65.88865889 29.54210721 53.17854976 19.70361328 37.73535156 C16.77685061 33.03608974 14.23303476 28.13078041 11.625 23.25 C10.68231778 21.52460199 9.73709647 19.80058825 8.7890625 18.078125 C8.33950195 17.25763672 7.88994141 16.43714844 7.42675781 15.59179688 C6.39618444 13.71969439 5.35812984 11.85170358 4.31542969 9.98632812 C3.76532227 8.99568359 3.21521484 8.00503906 2.6484375 6.984375 C1.88926025 5.62650879 1.88926025 5.62650879 1.11474609 4.24121094 C0 2 0 2 0 0 Z " fill="#FAFBFB" transform="translate(953,423)"/>
<path d="M0 0 C22.11 0 44.22 0 67 0 C67 6.93 67 13.86 67 21 C59.74 21 52.48 21 45 21 C45 43.77 45 66.54 45 90 C37.74 90 30.48 90 23 90 C23 67.23 23 44.46 23 21 C15.41 21 7.82 21 0 21 C0 14.07 0 7.14 0 0 Z " fill="#F9F9FA" transform="translate(1071,423)"/>
<path d="M0 0 C22.11 0 44.22 0 67 0 C67 6.93 67 13.86 67 21 C59.41 21 51.82 21 44 21 C44 43.77 44 66.54 44 90 C36.74 90 29.48 90 22 90 C22 67.23 22 44.46 22 21 C14.74 21 7.48 21 0 21 C0 14.07 0 7.14 0 0 Z " fill="#F9F9FA" transform="translate(520,423)"/>
<path d="M0 0 C3.59721356 1.4954708 5.63097221 3.52706308 8.1875 6.4375 C8.97640625 7.3346875 9.7653125 8.231875 10.578125 9.15625 C13.67246002 12.78959821 16.67358021 16.49359911 19.67578125 20.203125 C23.62017787 24.94965942 27.82666146 29.45539246 32 34 C33.36071114 35.49406578 34.71566292 36.99341537 36.0625 38.5 C36.88427734 39.41265625 36.88427734 39.41265625 37.72265625 40.34375 C39 42 39 42 40 45 C39.34 45 38.68 45 38 45 C37.63261719 45.82951172 37.63261719 45.82951172 37.2578125 46.67578125 C33.23351233 54.11198809 26.66177757 60.43216393 21.02734375 66.69140625 C18.80468045 69.22241591 16.68143364 71.81912966 14.5625 74.4375 C10.9302302 78.91709174 7.13740681 83.203124 3.25390625 87.46484375 C0.90460902 90.10729418 -1.33569602 92.81623574 -3.5625 95.5625 C-4.325625 96.46742188 -5.08875 97.37234375 -5.875 98.3046875 C-8.04011578 100.9038677 -8.04011578 100.9038677 -9.5 103.6953125 C-11.35360123 106.65180647 -13.07855304 108.0939038 -16 110 C-18.81225586 110.51513672 -18.81225586 110.51513672 -21.83984375 110.5546875 C-22.92450928 110.57249268 -24.0091748 110.59029785 -25.12670898 110.60864258 C-30.09456933 110.5406882 -35.04351586 110.34096228 -40 110 C-36.59637436 105.34627056 -33.13716469 100.89916566 -29.1875 96.6875 C-25.8674031 93.09031603 -22.68760622 89.4435308 -19.625 85.625 C-16.23614031 81.421856 -12.68760734 77.43796823 -9 73.5 C-4.51072144 68.7055494 -0.27899718 63.78054417 3.81640625 58.640625 C6.84196158 54.98181391 10.1256827 51.58368788 13.4453125 48.19140625 C15.18454315 46.18014501 15.18454315 46.18014501 15.0234375 44.03125 C13.59772321 41.20158805 11.68686762 39.22898629 9.5 36.9375 C5.15876295 32.31461844 1.10296774 27.52987642 -2.8828125 22.59375 C-5.83123725 18.98165769 -8.89831792 15.48066574 -12 12 C-8 8 -4 4 0 0 Z " fill="#B4D25A" transform="translate(106,462)"/>
<path d="M0 0 C7.86198022 7.79153237 15.28508625 15.90904811 22.1875 24.5625 C22.90993896 25.45569946 22.90993896 25.45569946 23.64697266 26.36694336 C27 30.64018088 27 30.64018088 27 34 C24.68902926 37.47743847 21.87115349 40.44318841 17.80627441 41.65280151 C15.2906585 41.90565096 12.85613901 41.94340084 10.328125 41.90234375 C9.38801575 41.91468048 8.44790649 41.92701721 7.47930908 41.93972778 C4.4021034 41.97190981 1.32728858 41.95513736 -1.75 41.9375 C-3.88348303 41.95008819 -6.01695036 41.96566731 -8.15039062 41.98413086 C-13.66554643 42.0232394 -19.1798237 42.02049692 -24.69506836 42.0057373 C-30.04156866 41.99645587 -35.38791597 42.01981684 -40.734375 42.0390625 C-50.82317011 42.06853846 -60.91130773 42.05025789 -71 42 C-69 36 -69 36 -63 24 C-43.53 23.67 -24.06 23.34 -4 23 C-6.64 20.03 -9.28 17.06 -12 14 C-8 9.33333333 -4 4.66666667 0 0 Z " fill="#7DA12A" transform="translate(300,561)"/>
<path d="M0 0 C1.56632423 -0.0010952 1.56632423 -0.0010952 3.16429138 -0.00221252 C6.61689133 0.0012718 10.06814344 0.04017511 13.52050781 0.0793457 C15.91374983 0.08867076 18.30700138 0.09578832 20.70025635 0.1007843 C27.00024757 0.11987795 33.29966271 0.16900028 39.59942627 0.2243042 C46.02746792 0.27544498 52.45560263 0.29828736 58.88378906 0.32348633 C71.49731614 0.37711576 84.11044384 0.46149742 96.72363281 0.56762695 C96.72363281 0.89762695 96.72363281 1.22762695 96.72363281 1.56762695 C61.74363281 1.56762695 26.76363281 1.56762695 -9.27636719 1.56762695 C-6.96636719 6.51762695 -4.65636719 11.46762695 -2.27636719 16.56762695 C-2.27636719 17.22762695 -2.27636719 17.88762695 -2.27636719 18.56762695 C17.52363281 18.56762695 37.32363281 18.56762695 57.72363281 18.56762695 C57.39363281 19.22762695 57.06363281 19.88762695 56.72363281 20.56762695 C56.00890305 20.54097961 55.29417328 20.51433228 54.55778503 20.48687744 C47.7779227 20.24509869 40.99871423 20.06308131 34.21563244 19.94588089 C30.72886059 19.88358704 27.24568661 19.79933914 23.76098633 19.66235352 C7.89859727 18.19905003 7.89859727 18.19905003 -6.45068359 23.09008789 C-9.3302917 25.88955848 -11.2837801 29.08644903 -13.27636719 32.56762695 C-14.83048446 34.50805862 -16.41017417 36.42858601 -18.02636719 38.31762695 C-18.74179688 39.20579102 -19.45722656 40.09395508 -20.19433594 41.0090332 C-23.12694375 44.61289459 -26.1856135 48.0992249 -29.27636719 51.56762695 C-34.30064845 47.83162294 -37.93390617 43.43725185 -41.83105469 38.5559082 C-45.10861878 34.55057828 -48.59191607 30.77197982 -52.11230469 26.9777832 C-54.27636719 24.56762695 -54.27636719 24.56762695 -55.5403595 22.44537354 C-57.1645573 20.31021268 -57.1645573 20.31021268 -59.95292664 20.08660889 C-61.02992325 20.09549133 -62.10691986 20.10437378 -63.21655273 20.11352539 C-65.04811165 20.11397858 -65.04811165 20.11397858 -66.91667175 20.11444092 C-68.23548843 20.13508606 -69.55430511 20.1557312 -70.91308594 20.17700195 C-72.27642488 20.1844637 -73.63977455 20.19015695 -75.00312805 20.19415283 C-78.58893523 20.20941486 -82.17409279 20.24870023 -85.75964355 20.29296875 C-89.41942558 20.33390999 -93.07931272 20.35216131 -96.73925781 20.37231445 C-103.91859021 20.41519508 -111.09738763 20.48345187 -118.27636719 20.56762695 C-118.27636719 19.90762695 -118.27636719 19.24762695 -118.27636719 18.56762695 C-98.14636719 18.56762695 -78.01636719 18.56762695 -57.27636719 18.56762695 C-56.94636719 16.91762695 -56.61636719 15.26762695 -56.27636719 13.56762695 C-55.4704222 11.609577 -54.61435022 9.67153955 -53.71386719 7.75512695 C-53.25882812 6.77930664 -52.80378906 5.80348633 -52.33496094 4.7980957 C-51.81095703 3.69401367 -51.81095703 3.69401367 -51.27636719 2.56762695 C-50.78136719 3.55762695 -50.78136719 3.55762695 -50.27636719 4.56762695 C-49.66277344 4.71329102 -49.04917969 4.85895508 -48.41699219 5.0090332 C-41.24444013 6.88070281 -35.56639178 17.02959521 -31.27636719 22.56762695 C-28.21671445 21.22344708 -26.34166689 19.80680148 -24.18261719 17.2668457 C-23.34923828 16.29521484 -23.34923828 16.29521484 -22.49902344 15.30395508 C-21.93054688 14.6278418 -21.36207031 13.95172852 -20.77636719 13.25512695 C-20.20789063 12.59061523 -19.63941406 11.92610352 -19.05371094 11.24145508 C-15.66069762 7.31134535 -15.66069762 7.31134535 -12.81964111 2.98355103 C-8.91390724 -0.72661027 -5.19887681 -0.09476974 0 0 Z " fill="#6F912A" transform="translate(206.2763671875,420.432373046875)"/>
<path d="M0 0 C3.68667002 -0.20474001 7.37186743 -0.32809831 11.0625 -0.4375 C12.62000977 -0.52547852 12.62000977 -0.52547852 14.20898438 -0.61523438 C21.79733994 -0.7838645 21.79733994 -0.7838645 25.15869141 1.40698242 C26.95379201 3.17682363 28.48591048 4.9867485 30 7 C30.74765625 7.88042969 31.4953125 8.76085937 32.265625 9.66796875 C32.92046875 10.49941406 33.5753125 11.33085938 34.25 12.1875 C37.53328396 16.26926968 40.93316892 20.16935005 44.5 24 C57.13095 37.62626354 57.13095 37.62626354 60.08203125 42.953125 C59.96229317 45.94087512 58.24371819 47.26237957 56.17773438 49.26171875 C55.37819336 49.99841797 55.37819336 49.99841797 54.5625 50.75 C54.03333984 51.25660156 53.50417969 51.76320313 52.95898438 52.28515625 C51.65022899 53.53495869 50.32648041 54.76902618 49 56 C44.19912595 52.103382 40.06271802 48.00959486 36.125 43.25 C35.08047693 42.00823074 34.03489657 40.76735009 32.98828125 39.52734375 C32.48119629 38.92519043 31.97411133 38.32303711 31.45166016 37.70263672 C29.45460991 35.36031778 27.38853117 33.08486337 25.3125 30.8125 C22.30185521 27.4991692 19.43434822 24.11058071 16.625 20.625 C12.7949671 15.8746765 8.75137602 11.38401685 4.54150391 6.97119141 C2.34611578 4.63646383 1.02841487 3.0852446 0 0 Z " fill="#E0F595" transform="translate(240,518)"/>
<path d="M0 0 C3.95384311 2.37528428 6.02241353 4.9363273 8.13671875 9.05859375 C8.52490234 12.10131836 8.52490234 12.10131836 8.53515625 15.4609375 C8.54095703 17.29108398 8.54095703 17.29108398 8.546875 19.15820312 C8.53527344 20.42470703 8.52367187 21.69121094 8.51171875 22.99609375 C8.52332031 24.25873047 8.53492188 25.52136719 8.546875 26.82226562 C8.54300781 28.04365234 8.53914063 29.26503906 8.53515625 30.5234375 C8.53177246 31.63323975 8.52838867 32.74304199 8.52490234 33.88647461 C7.92574989 38.78256756 6.24334168 42.03496754 2.63671875 45.37109375 C-1.92149103 48.44788535 -6.29503077 48.30696694 -11.61328125 48.37109375 C-12.79277344 48.41459961 -12.79277344 48.41459961 -13.99609375 48.45898438 C-19.79996366 48.52165074 -23.12032186 47.44556093 -27.86328125 44.05859375 C-31.18051988 40.34228882 -31.86328125 37.06961467 -31.86328125 32.05859375 C-28.56328125 32.05859375 -25.26328125 32.05859375 -21.86328125 32.05859375 C-21.20328125 33.70859375 -20.54328125 35.35859375 -19.86328125 37.05859375 C-14.25328125 37.05859375 -8.64328125 37.05859375 -2.86328125 37.05859375 C-1.53239015 34.39681154 -1.75059132 32.37119979 -1.765625 29.39453125 C-1.77045898 27.71230469 -1.77045898 27.71230469 -1.77539062 25.99609375 C-1.78376953 24.82046875 -1.79214844 23.64484375 -1.80078125 22.43359375 C-1.80529297 21.25023437 -1.80980469 20.066875 -1.81445312 18.84765625 C-1.82626658 15.91791868 -1.84273867 12.98828103 -1.86328125 10.05859375 C-4.84250718 10.03175388 -7.8214942 10.01183338 -10.80078125 9.99609375 C-11.65091797 9.98771484 -12.50105469 9.97933594 -13.37695312 9.97070312 C-14.18583984 9.96748047 -14.99472656 9.96425781 -15.828125 9.9609375 C-16.57698975 9.95570068 -17.32585449 9.95046387 -18.09741211 9.94506836 C-19.88995864 9.86517623 -19.88995864 9.86517623 -20.86328125 11.05859375 C-21.01910428 12.39874596 -21.11372267 13.74618278 -21.1796875 15.09375 C-21.22158203 15.90263672 -21.26347656 16.71152344 -21.30664062 17.54492188 C-21.34595703 18.39505859 -21.38527344 19.24519531 -21.42578125 20.12109375 C-21.46896484 20.97509766 -21.51214844 21.82910156 -21.55664062 22.70898438 C-21.66304827 24.82531412 -21.76369856 26.94193188 -21.86328125 29.05859375 C-25.16328125 29.05859375 -28.46328125 29.05859375 -31.86328125 29.05859375 C-31.97173152 26.01596108 -32.05080188 22.97723171 -32.11328125 19.93359375 C-32.14679688 19.07765625 -32.1803125 18.22171875 -32.21484375 17.33984375 C-32.30156706 11.70282881 -31.65397419 8.51782708 -27.86328125 4.05859375 C-20.5258191 -2.405361 -9.28821462 -3.05383318 0 0 Z " fill="#C2EB2F" transform="translate(495.86328125,558.94140625)"/>
<path d="M0 0 C1.11310547 0.01804687 2.22621094 0.03609375 3.37304688 0.0546875 C6.10376646 0.10156681 8.83267386 0.16717181 11.5625 0.25 C11.5625 3.55 11.5625 6.85 11.5625 10.25 C-0.8125 10.745 -0.8125 10.745 -13.4375 11.25 C-13.4375 13.89 -13.4375 16.53 -13.4375 19.25 C-11.48457031 19.30607422 -11.48457031 19.30607422 -9.4921875 19.36328125 C-7.76559743 19.42896674 -6.03903619 19.49541318 -4.3125 19.5625 C-3.02859375 19.59633789 -3.02859375 19.59633789 -1.71875 19.63085938 C3.40427221 19.84760262 7.13099716 20.41438613 11.5625 23.25 C14.58146109 26.59533526 16.42371552 28.86215524 16.875 33.375 C16.50495557 37.96355096 15.63517347 41.73526738 12.5625 45.25 C5.56962715 49.94215171 -0.70152383 49.7353136 -8.9375 49.5 C-10.14148438 49.48195313 -11.34546875 49.46390625 -12.5859375 49.4453125 C-15.53729605 49.39846554 -18.48697036 49.33288005 -21.4375 49.25 C-21.4375 45.95 -21.4375 42.65 -21.4375 39.25 C-20.65511963 39.22494385 -19.87273926 39.1998877 -19.06665039 39.17407227 C-15.54425051 39.05850212 -12.0221444 38.93560051 -8.5 38.8125 C-7.26830078 38.77318359 -6.03660156 38.73386719 -4.76757812 38.69335938 C-3.59775391 38.65146484 -2.42792969 38.60957031 -1.22265625 38.56640625 C-0.13863525 38.52974854 0.94538574 38.49309082 2.06225586 38.45532227 C4.501763 38.52635735 4.501763 38.52635735 5.5625 37.25 C5.60330783 35.25041636 5.60504356 33.24954746 5.5625 31.25 C1.72622384 29.33186192 -3.33990035 29.95985 -7.609375 29.90820312 C-12.99286465 29.71783301 -16.16651108 28.82448919 -20.4375 25.25 C-23.74330616 20.51167784 -24.32435336 15.86337868 -23.4375 10.25 C-18.54336698 -0.12556201 -10.20041532 -0.31479027 0 0 Z " fill="#C2EC2F" transform="translate(618.4375,557.75)"/>
<path d="M0 0 C0.76828125 -0.01546875 1.5365625 -0.0309375 2.328125 -0.046875 C7.99516038 -0.00832374 11.3626805 1.22280455 16 4.5 C19.31723863 8.21630493 20 11.48897908 20 16.5 C16.7 16.5 13.4 16.5 10 16.5 C9.34 14.85 8.68 13.2 8 11.5 C5.35409986 11.47315321 2.70846904 11.45323643 0.0625 11.4375 C-0.69224609 11.42912109 -1.44699219 11.42074219 -2.22460938 11.41210938 C-4.14994313 11.40347559 -6.07535581 11.44775667 -8 11.5 C-9.28426897 12.55950052 -9.28426897 12.55950052 -9.11352539 15.00024414 C-9.10828857 16.08426514 -9.10305176 17.16828613 -9.09765625 18.28515625 C-9.09443359 19.45498047 -9.09121094 20.62480469 -9.08789062 21.83007812 C-9.07951172 23.06177734 -9.07113281 24.29347656 -9.0625 25.5625 C-9.05798828 26.79806641 -9.05347656 28.03363281 -9.04882812 29.30664062 C-9.03699618 32.37111413 -9.01906008 35.43556293 -9 38.5 C-2.73 38.5 3.54 38.5 10 38.5 C10 36.85 10 35.2 10 33.5 C13.3 33.5 16.6 33.5 20 33.5 C19.62074135 39.09406511 19.30497599 42.53489054 15 46.5 C9.64944982 49.27261885 5.4186146 49.97069783 -0.5625 49.875 C-1.29146484 49.88660156 -2.02042969 49.89820313 -2.77148438 49.91015625 C-7.56414724 49.88427328 -10.83882747 49.0960748 -15 46.5 C-21.12663109 39.87661504 -20.24775888 33.28080451 -20.3125 24.6875 C-20.34150391 23.41583984 -20.37050781 22.14417969 -20.40039062 20.83398438 C-20.46350763 11.56549531 -20.46350763 11.56549531 -18.41796875 6.86328125 C-12.58391216 1.16117424 -7.91891485 -0.15944124 0 0 Z " fill="#C1EA2F" transform="translate(419,557.5)"/>
<path d="M0 0 C3.76706696 2.26307789 6.51507979 4.90314391 8.13671875 9.05859375 C8.32421875 12.37109375 8.32421875 12.37109375 8.13671875 15.05859375 C5.16671875 15.05859375 2.19671875 15.05859375 -0.86328125 15.05859375 C-1.19328125 13.40859375 -1.52328125 11.75859375 -1.86328125 10.05859375 C-4.84250718 10.03175388 -7.8214942 10.01183338 -10.80078125 9.99609375 C-11.65091797 9.98771484 -12.50105469 9.97933594 -13.37695312 9.97070312 C-14.18583984 9.96748047 -14.99472656 9.96425781 -15.828125 9.9609375 C-16.57698975 9.95570068 -17.32585449 9.95046387 -18.09741211 9.94506836 C-19.88995864 9.86517623 -19.88995864 9.86517623 -20.86328125 11.05859375 C-20.96287746 12.90018398 -20.99408536 14.74556342 -20.99609375 16.58984375 C-20.99738281 17.71003906 -20.99867187 18.83023438 -21 19.984375 C-20.99613281 21.16386719 -20.99226563 22.34335937 -20.98828125 23.55859375 C-20.99214844 24.73808594 -20.99601562 25.91757812 -21 27.1328125 C-20.99806641 28.81310547 -20.99806641 28.81310547 -20.99609375 30.52734375 C-20.99496582 31.56310547 -20.99383789 32.59886719 -20.99267578 33.66601562 C-21.13293278 36.01157198 -21.13293278 36.01157198 -19.86328125 37.05859375 C-17.00060558 37.13184543 -14.16256225 37.1509758 -11.30078125 37.12109375 C-10.09131836 37.11432617 -10.09131836 37.11432617 -8.85742188 37.10742188 C-6.85934369 37.09559893 -4.86130342 37.07766289 -2.86328125 37.05859375 C-2.20328125 35.40859375 -1.54328125 33.75859375 -0.86328125 32.05859375 C2.10671875 32.05859375 5.07671875 32.05859375 8.13671875 32.05859375 C7.80134181 38.54254789 6.87067675 41.53981566 2.13671875 46.05859375 C-2.36568802 48.48424463 -6.74826048 48.42539996 -11.73828125 48.43359375 C-12.51558594 48.45808594 -13.29289062 48.48257813 -14.09375 48.5078125 C-19.85157904 48.53684357 -23.24138791 47.56759877 -27.86328125 44.05859375 C-33.00760063 37.85367606 -32.46348346 31.28264059 -32.36328125 23.49609375 C-32.37875 22.29017578 -32.39421875 21.08425781 -32.41015625 19.84179688 C-32.36190866 8.91974791 -32.36190866 8.91974791 -27.86328125 4.05859375 C-20.5258191 -2.405361 -9.28821462 -3.05383318 0 0 Z " fill="#C2EB2F" transform="translate(1249.86328125,558.94140625)"/>
<path d="M0 0 C1.36520821 0.02009327 2.73044493 0.03833906 4.09570312 0.0546875 C7.41870134 0.10165567 10.74022992 0.16733274 14.0625 0.25 C14.0625 3.55 14.0625 6.85 14.0625 10.25 C13.18924072 10.27505615 12.31598145 10.3001123 11.41625977 10.32592773 C8.18647448 10.42087709 4.95685846 10.52012029 1.72729492 10.62231445 C0.32760801 10.66571434 -1.07213359 10.70738564 -2.47192383 10.74731445 C-4.48011495 10.80489445 -6.48811149 10.86914 -8.49609375 10.93359375 C-9.70579834 10.97025146 -10.91550293 11.00690918 -12.16186523 11.04467773 C-14.84455456 10.93938266 -14.84455456 10.93938266 -15.9375 12.25 C-16.03709621 14.09159023 -16.06830411 15.93696967 -16.0703125 17.78125 C-16.07160156 18.90144531 -16.07289063 20.02164063 -16.07421875 21.17578125 C-16.07035156 22.35527344 -16.06648437 23.53476562 -16.0625 24.75 C-16.06636719 25.92949219 -16.07023438 27.10898437 -16.07421875 28.32421875 C-16.07228516 30.00451172 -16.07228516 30.00451172 -16.0703125 31.71875 C-16.06918457 32.75451172 -16.06805664 33.79027344 -16.06689453 34.85742188 C-16.20715153 37.20297823 -16.20715153 37.20297823 -14.9375 38.25 C-12.07482433 38.32325168 -9.236781 38.34238205 -6.375 38.3125 C-5.16553711 38.30573242 -5.16553711 38.30573242 -3.93164062 38.29882812 C-1.93356244 38.28700518 0.06447783 38.26906914 2.0625 38.25 C2.7225 36.6 3.3825 34.95 4.0625 33.25 C7.3625 33.25 10.6625 33.25 14.0625 33.25 C13.59824887 37.98536149 13.16093865 41.55186355 10.0625 45.25 C4.51783047 48.96122322 -0.49357273 49.88292939 -7.0625 49.75 C-7.83464844 49.76546875 -8.60679687 49.7809375 -9.40234375 49.796875 C-14.69190469 49.76083029 -17.82084428 48.82970063 -21.9375 45.25 C-25.34733026 40.89589706 -26.44702446 38.04643406 -26.46875 32.53125 C-26.47390625 31.26925781 -26.4790625 30.00726562 -26.484375 28.70703125 C-26.46890625 27.40121094 -26.4534375 26.09539063 -26.4375 24.75 C-26.45296875 23.44417969 -26.4684375 22.13835938 -26.484375 20.79296875 C-26.47921875 19.53097656 -26.4740625 18.26898437 -26.46875 16.96875 C-26.46423828 15.82341797 -26.45972656 14.67808594 -26.45507812 13.49804688 C-25.62630603 8.29711107 -23.09051182 5.21590727 -19.12109375 1.890625 C-13.30669554 -1.10895239 -6.35526156 -0.16289632 0 0 Z " fill="#C3EC2F" transform="translate(978.9375,557.75)"/>
<path d="M0 0 C3.59721356 1.4954708 5.63097221 3.52706308 8.1875 6.4375 C8.97640625 7.3346875 9.7653125 8.231875 10.578125 9.15625 C13.67246002 12.78959821 16.67358021 16.49359911 19.67578125 20.203125 C23.62015984 24.94963773 27.8263713 29.45568718 32 34 C33.38160715 35.51483356 34.75741481 37.03499557 36.125 38.5625 C36.68445313 39.18253906 37.24390625 39.80257812 37.8203125 40.44140625 C39 42 39 42 39 44 C18.06052782 46.24883757 18.06052782 46.24883757 12.1171875 41.4921875 C9.4768354 38.82844039 7.29139811 35.87041877 5.20263672 32.76171875 C3.37711812 30.08755265 1.27447231 27.65991978 -0.8125 25.1875 C-1.51890625 24.30835938 -2.2253125 23.42921875 -2.953125 22.5234375 C-5.86977991 18.92771407 -8.9201786 15.45613399 -12 12 C-8 8 -4 4 0 0 Z " fill="#D7F271" transform="translate(106,462)"/>
<path d="M0 0 C0.75297363 0.00354492 1.50594727 0.00708984 2.28173828 0.01074219 C8.13404056 0.18604449 12.35876269 1.27001966 16.625 5.5 C20.8993248 10.18796914 20.76212661 14.81586866 20.72265625 20.88671875 C20.7212413 21.70372757 20.71982635 22.52073639 20.71836853 23.36250305 C20.71277294 25.97087268 20.70022129 28.57915634 20.6875 31.1875 C20.68248443 32.95637897 20.67792162 34.72525928 20.67382812 36.49414062 C20.66280496 40.82946019 20.64554338 45.16471552 20.625 49.5 C17.325 49.5 14.025 49.5 10.625 49.5 C10.59994385 48.38439697 10.5748877 47.26879395 10.54907227 46.11938477 C10.45516579 41.9950741 10.35490486 37.8709385 10.25268555 33.74682617 C10.209273 31.9591073 10.16760271 30.17134526 10.12768555 28.38354492 C10.0701354 25.81936609 10.00639797 23.25540588 9.94140625 20.69140625 C9.92469376 19.8872377 9.90798126 19.08306915 9.89076233 18.25453186 C10.13279304 14.57330002 10.13279304 14.57330002 8.625 11.5 C5.78164952 11.40013025 2.96802837 11.36122119 0.125 11.375 C-0.67292969 11.37113281 -1.47085938 11.36726562 -2.29296875 11.36328125 C-6.1433932 10.9910039 -6.1433932 10.9910039 -9.375 12.5 C-9.61201239 15.35877909 -9.79719182 18.19883297 -9.9375 21.0625 C-9.98068359 21.86880859 -10.02386719 22.67511719 -10.06835938 23.50585938 C-10.17475262 25.50368805 -10.27540888 27.5018207 -10.375 29.5 C-13.345 29.5 -16.315 29.5 -19.375 29.5 C-19.5104964 26.29024078 -19.60934038 23.08624371 -19.6875 19.875 C-19.7503418 18.51955078 -19.7503418 18.51955078 -19.81445312 17.13671875 C-19.89295114 12.83502732 -19.93312363 9.53661588 -17.23046875 6.0390625 C-11.70842504 1.12890052 -7.16551966 -0.06022777 0 0 Z " fill="#C2EB2F" transform="translate(549.375,557.5)"/>
<path d="M0 0 C1.99462904 1.21997949 3.57794169 2.35031849 5.20703125 4.0234375 C5.72579834 4.52552734 6.24456543 5.02761719 6.77905273 5.54492188 C8.9545625 9.32091352 8.57758089 12.88361592 8.5 17.1640625 C8.49575516 18.04624451 8.49151031 18.92842651 8.48713684 19.83734131 C8.47036963 22.64968633 8.43272123 25.46130976 8.39453125 28.2734375 C8.37948187 30.1822813 8.36579391 32.09113636 8.35351562 34 C8.32047252 38.67475639 8.2687038 43.34897468 8.20703125 48.0234375 C5.23703125 48.0234375 2.26703125 48.0234375 -0.79296875 48.0234375 C-1.28796875 29.7084375 -1.28796875 29.7084375 -1.79296875 11.0234375 C-4.96690564 9.43646906 -8.3747108 9.8802928 -11.85546875 9.8984375 C-12.97405273 9.89263672 -12.97405273 9.89263672 -14.11523438 9.88671875 C-17.75214199 9.55132598 -17.75214199 9.55132598 -20.79296875 11.0234375 C-20.94879178 12.36358971 -21.04341017 13.71102653 -21.109375 15.05859375 C-21.15126953 15.86748047 -21.19316406 16.67636719 -21.23632812 17.50976562 C-21.27564453 18.35990234 -21.31496094 19.21003906 -21.35546875 20.0859375 C-21.39865234 20.93994141 -21.44183594 21.79394531 -21.48632812 22.67382812 C-21.59273577 24.79015787 -21.69338606 26.90677563 -21.79296875 29.0234375 C-25.09296875 29.0234375 -28.39296875 29.0234375 -31.79296875 29.0234375 C-31.87435301 26.14786047 -31.93364726 23.27461488 -31.98046875 20.3984375 C-32.00560547 19.59019531 -32.03074219 18.78195312 -32.05664062 17.94921875 C-32.12766842 12.12493974 -31.37600433 7.85535933 -27.29296875 3.37890625 C-20.07687092 -2.23987826 -8.71794196 -3.04823145 0 0 Z " fill="#C2EC2F" transform="translate(918.79296875,558.9765625)"/>
<path d="M0 0 C8.64067273 3.49976905 15.3160189 14.47892405 20.9921875 21.58984375 C22.95065497 24.03870975 22.95065497 24.03870975 25.2578125 26.12890625 C27 28 27 28 27 31 C23.39598519 31.08701039 19.79223988 31.14039388 16.1875 31.1875 C15.16333984 31.21263672 14.13917969 31.23777344 13.08398438 31.26367188 C11.60961914 31.27817383 11.60961914 31.27817383 10.10546875 31.29296875 C9.19949951 31.3086792 8.29353027 31.32438965 7.36010742 31.34057617 C4.57555794 30.93875073 3.72400465 30.16311438 2 28 C-0.6905528 29.22007944 -0.6905528 29.22007944 -3 31 C-4.63472882 31.08700342 -6.27314055 31.10701063 -7.91015625 31.09765625 C-8.89951172 31.09443359 -9.88886719 31.09121094 -10.90820312 31.08789062 C-11.94912109 31.07951172 -12.99003906 31.07113281 -14.0625 31.0625 C-15.10728516 31.05798828 -16.15207031 31.05347656 -17.22851562 31.04882812 C-19.8190666 31.03699913 -22.40950559 31.02051689 -25 31 C-23.37883154 26.59407877 -21.17392616 23.7124265 -17.9375 20.375 C-13.34000674 15.51033453 -9.05446165 10.50935365 -4.875 5.27734375 C-3.32787414 3.39823047 -1.75953659 1.67705831 0 0 Z " fill="#75982A" transform="translate(208,553)"/>
<path d="M0 0 C3.3 0 6.6 0 10 0 C10.07438973 5.30188966 10.12871511 10.60347268 10.16479492 15.90576172 C10.1798424 17.70789892 10.2002853 19.50999973 10.22631836 21.31201172 C10.26288021 23.90862021 10.27976681 26.50474275 10.29296875 29.1015625 C10.30845261 29.9017984 10.32393646 30.7020343 10.33988953 31.52651978 C10.34135243 36.43530908 9.69744641 39.737319 7 44 C1.69493373 48.9071863 -2.75744712 49.22818465 -9.75 49.3125 C-10.92949219 49.35600586 -10.92949219 49.35600586 -12.1328125 49.40039062 C-17.93668241 49.46305699 -21.25704061 48.38696718 -26 45 C-29.31723863 41.28369507 -30 38.01102092 -30 33 C-26.7 33 -23.4 33 -20 33 C-19.34 34.65 -18.68 36.3 -18 38 C-12.39 38 -6.78 38 -1 38 C-0.67 25.46 -0.34 12.92 0 0 Z " fill="#BFE82F" transform="translate(690,558)"/>
<path d="M0 0 C3.3 0 6.6 0 10 0 C10.02505615 1.11560303 10.0501123 2.23120605 10.07592773 3.38061523 C10.16983421 7.5049259 10.27009514 11.6290615 10.37231445 15.75317383 C10.415727 17.5408927 10.45739729 19.32865474 10.49731445 21.11645508 C10.5548646 23.68063391 10.61860203 26.24459412 10.68359375 28.80859375 C10.70030624 29.6127623 10.71701874 30.41693085 10.73423767 31.24546814 C10.49220696 34.92669998 10.49220696 34.92669998 12 38 C14.14386657 38.15858842 16.29266838 38.25129298 18.44140625 38.31640625 C19.74658203 38.35830078 21.05175781 38.40019531 22.39648438 38.44335938 C23.7851533 38.48317608 25.17382522 38.52288825 26.5625 38.5625 C27.95509183 38.60567989 29.34767028 38.649294 30.74023438 38.69335938 C34.16004801 38.79985876 37.57993763 38.90186923 41 39 C41 42.3 41 45.6 41 49 C36.83746725 49.09938095 32.67557521 49.17170617 28.51220703 49.21972656 C27.09802205 49.23975843 25.68391903 49.26699248 24.27001953 49.30175781 C22.22928581 49.35065489 20.1896531 49.37305123 18.1484375 49.390625 C16.92302246 49.41157227 15.69760742 49.43251953 14.43505859 49.45410156 C9.17301309 48.75847934 6.13400929 46.28725378 2.6875 42.375 C-0.36525649 38.0785279 -0.12987292 34.61611592 -0.09765625 29.4921875 C-0.0962413 28.65156769 -0.09482635 27.81094788 -0.09336853 26.94485474 C-0.08776237 24.25486725 -0.07520886 21.56496241 -0.0625 18.875 C-0.05748579 17.05338662 -0.05292275 15.23177193 -0.04882812 13.41015625 C-0.03779094 8.94007223 -0.0205222 4.47005014 0 0 Z " fill="#BFE82F" transform="translate(725,558)"/>
<path d="M0 0 C3.3 0 6.6 0 10 0 C10.33 12.54 10.66 25.08 11 38 C20.57 38.33 30.14 38.66 40 39 C40 42.3 40 45.6 40 49 C35.97990543 49.07455949 31.96008267 49.12879358 27.93945312 49.16479492 C26.57382184 49.17981428 25.20823824 49.20023608 23.84277344 49.22631836 C21.87196095 49.26300137 19.90078592 49.27818551 17.9296875 49.29296875 C16.74616699 49.3086792 15.56264648 49.32438965 14.34326172 49.34057617 C9.32866416 48.82974197 6.09600522 47.18487051 2.6875 43.5 C-0.39869143 38.92786455 -0.13128994 34.7101966 -0.09765625 29.39453125 C-0.0962413 28.55532639 -0.09482635 27.71612152 -0.09336853 26.85148621 C-0.08777215 24.17178784 -0.07522035 21.4921731 -0.0625 18.8125 C-0.05748453 16.99544392 -0.05292171 15.17838652 -0.04882812 13.36132812 C-0.03780391 8.90751987 -0.02054178 4.45377411 0 0 Z " fill="#C0E92F" transform="translate(1153,558)"/>
<path d="M0 0 C2.97 0 5.94 0 9 0 C9.02505615 1.08531006 9.0501123 2.17062012 9.07592773 3.28881836 C9.16983755 7.301316 9.27009767 11.31363382 9.37231445 15.32592773 C9.41572573 17.06514288 9.45739612 18.80440235 9.49731445 20.54370117 C9.55486768 23.03838488 9.6186042 25.5328441 9.68359375 28.02734375 C9.70030624 28.80963852 9.71701874 29.59193329 9.73423767 30.39793396 C9.50648731 33.99871781 9.50648731 33.99871781 11 37 C13.14386657 37.15858842 15.29266838 37.25129298 17.44140625 37.31640625 C18.74658203 37.35830078 20.05175781 37.40019531 21.39648438 37.44335938 C22.7851533 37.48317608 24.17382522 37.52288825 25.5625 37.5625 C26.95509183 37.60567989 28.34767028 37.649294 29.74023438 37.69335938 C33.16004801 37.79985876 36.57993763 37.90186923 40 38 C40 41.3 40 44.6 40 48 C35.83746725 48.09938095 31.67557521 48.17170617 27.51220703 48.21972656 C26.09802205 48.23975843 24.68391903 48.26699248 23.27001953 48.30175781 C21.22928581 48.35065489 19.1896531 48.37305123 17.1484375 48.390625 C15.92302246 48.41157227 14.69760742 48.43251953 13.43505859 48.45410156 C8.01895859 47.73811393 5.18055198 45.35295082 1.64941406 41.30615234 C-0.47652435 37.04483529 -0.51157834 33.78989108 -0.390625 29.1015625 C-0.38496521 28.26660248 -0.37930542 27.43164246 -0.37347412 26.57138062 C-0.35120223 23.92198734 -0.30102523 21.27397984 -0.25 18.625 C-0.22992302 16.82163421 -0.21167435 15.01824708 -0.1953125 13.21484375 C-0.15136786 8.80936731 -0.08240601 4.40491806 0 0 Z " fill="#C4EE2F" transform="translate(1088,559)"/>
<path d="M0 0 C4.05812011 0.01052217 8.11624741 0.01485715 12.17437744 0.01983643 C20.03377066 0.03032984 27.8931306 0.0472238 35.75250244 0.06866455 C35.75250244 0.39866455 35.75250244 0.72866455 35.75250244 1.06866455 C35.05189194 1.03011856 34.35128143 0.99157257 33.62944031 0.95185852 C-2.66245707 -2.7851286 -2.66245707 -2.7851286 -35.01319885 8.70213318 C-39.92239186 13.56103086 -43.71806917 19.15541125 -47.24749756 25.06866455 C-47.90749756 25.72866455 -48.56749756 26.38866455 -49.24749756 27.06866455 C-69.24749756 3.93533122 -69.24749756 3.93533122 -69.24749756 1.06866455 C-46.15790756 0.23798426 -23.10348834 -0.06666027 0 0 Z " fill="#56762C" transform="translate(120.24749755859375,420.93133544921875)"/>
<path d="M0 0 C13.2 0 26.4 0 40 0 C38.02 2.31 36.04 4.62 34 7 C33.27184082 7.94020996 32.54368164 8.88041992 31.79345703 9.84912109 C28.29458536 13.97739431 25.68786037 16.6368233 20.29199219 17.79785156 C16.13718119 18.10007272 12.02647179 17.87767341 7.875 17.625 C6.42723878 17.57473051 4.97930786 17.52912223 3.53125 17.48828125 C0.01725034 17.37916039 -3.49026024 17.20728065 -7 17 C-6 12 -6 12 0 0 Z " fill="#CEF249" transform="translate(237,585)"/>
<path d="M0 0 C3.45748051 3.41418469 6.79343747 6.90251543 10.0625 10.5 C10.89910156 11.4178125 11.73570312 12.335625 12.59765625 13.28125 C13.39042969 14.1784375 14.18320312 15.075625 15 16 C15.78246094 16.8559375 16.56492187 17.711875 17.37109375 18.59375 C19 21 19 21 19.06640625 22.984375 C17.50216523 25.94096242 15.34113553 27.93764177 12.9375 30.25 C11.55884766 31.58804688 11.55884766 31.58804688 10.15234375 32.953125 C9.44207031 33.62859375 8.73179687 34.3040625 8 35 C3.03822233 30.9837634 -1.22278987 26.70657202 -5.3125 21.8125 C-5.83650391 21.19697266 -6.36050781 20.58144531 -6.90039062 19.94726562 C-9.09452289 17.35420022 -11.11130275 14.83304588 -13 12 C-12.48050781 11.55269531 -11.96101563 11.10539063 -11.42578125 10.64453125 C-7.47320346 7.21798969 -3.64172918 3.75553321 0 0 Z " fill="#CEF14A" transform="translate(281,539)"/>
<path d="M0 0 C3.3 0 6.6 0 10 0 C10 16.17 10 32.34 10 49 C6.7 49 3.4 49 0 49 C0 32.83 0 16.66 0 0 Z " fill="#BDE62F" transform="translate(852,558)"/>
<path d="M0 0 C3.23006734 -0.1081697 6.45649754 -0.18739234 9.6875 -0.25 C11.05551758 -0.30027344 11.05551758 -0.30027344 12.45117188 -0.3515625 C16.81769795 -0.41507561 19.28725121 -0.43722486 23.08203125 1.890625 C26.0067761 5.10724867 26.0067761 5.10724867 25.984375 8.05859375 C25.86835937 9.23615234 25.86835937 9.23615234 25.75 10.4375 C25.68296875 11.21996094 25.6159375 12.00242187 25.546875 12.80859375 C24.8956961 15.41796062 24.10493912 16.36115454 22 18 C19.17588235 18.94137255 17.47081968 19.11725382 14.55078125 19.09765625 C13.78677002 19.09515869 13.02275879 19.09266113 12.2355957 19.09008789 C11.27097412 19.08098389 10.30635254 19.07187988 9.3125 19.0625 C4.7028125 19.0315625 4.7028125 19.0315625 0 19 C0 12.73 0 6.46 0 0 Z " fill="#071E34" transform="translate(645,444)"/>
<path d="M0 0 C1.37212301 1.53195272 2.6715446 3.12921081 3.9375 4.75 C7.92771453 9.76051368 12.12098493 14.48289701 16.54467773 19.11425781 C20 22.78889698 20 22.78889698 20 25 C-1.25097499 26.89978084 -1.25097499 26.89978084 -6.7890625 22.69140625 C-9.81481297 19.71393363 -12.96766696 16.40188288 -13.02734375 11.96875 C-11.50453768 9.05052087 -9.40546909 7.04926952 -7.0625 4.75 C-6.16660156 3.85796875 -5.27070312 2.9659375 -4.34765625 2.046875 C-2 0 -2 0 0 0 Z " fill="#E3F4A2" transform="translate(125,481)"/>
<path d="M0 0 C13.53 0 27.06 0 41 0 C41 3.3 41 6.6 41 10 C27.47 10 13.94 10 0 10 C0 6.7 0 3.4 0 0 Z " fill="#C1EA2F" transform="translate(786,558)"/>
<path d="M0 0 C3.56377018 -0.13510502 7.12241117 -0.23417099 10.6875 -0.3125 C12.19860352 -0.3753418 12.19860352 -0.3753418 13.74023438 -0.43945312 C21.23501193 -0.56312932 21.23501193 -0.56312932 25.16796875 2.33203125 C27 5 27 5 27.625 8 C26.74639771 12.21729101 25.4790792 13.43895156 22 16 C18.21082722 16.61431889 14.51330361 16.47160252 10.6875 16.3125 C9.66076172 16.28994141 8.63402344 16.26738281 7.57617188 16.24414062 C5.05015334 16.18539601 2.52488776 16.09572026 0 16 C0 10.72 0 5.44 0 0 Z " fill="#091F36" transform="translate(874,476)"/>
<path d="M0 0 C0.495 0.99 0.495 0.99 1 2 C1.61230469 2.14308594 2.22460938 2.28617187 2.85546875 2.43359375 C5.47125855 3.12446719 6.45608915 4.11747765 8.3125 6.0625 C9.20582031 6.99642578 9.20582031 6.99642578 10.1171875 7.94921875 C19 17.62448133 19 17.62448133 19 19 C15.02084841 19.02886984 11.04172347 19.04675406 7.0625 19.0625 C5.35803711 19.07506836 5.35803711 19.07506836 3.61914062 19.08789062 C2.53955078 19.09111328 1.45996094 19.09433594 0.34765625 19.09765625 C-1.15269165 19.10551147 -1.15269165 19.10551147 -2.68334961 19.11352539 C-5 19 -5 19 -6 18 C-7.90243762 17.90608704 -9.80838459 17.88256342 -11.71313477 17.88647461 C-13.54492027 17.88658791 -13.54492027 17.88658791 -15.41371155 17.88670349 C-16.75627686 17.89181089 -18.09884175 17.89702689 -19.44140625 17.90234375 C-20.80761158 17.90420801 -22.17381757 17.90563187 -23.5400238 17.90663147 C-27.14201695 17.91045606 -30.74397 17.92028583 -34.34594727 17.93133545 C-38.01903745 17.94155084 -41.69213409 17.94612936 -45.36523438 17.95117188 C-52.57684123 17.96190816 -59.788415 17.97898386 -67 18 C-67 17.34 -67 16.68 -67 16 C-46.87 16 -26.74 16 -6 16 C-5.67 14.35 -5.34 12.7 -5 11 C-4.19405501 9.04195005 -3.33798303 7.1039126 -2.4375 5.1875 C-1.98246094 4.21167969 -1.52742188 3.23585938 -1.05859375 2.23046875 C-0.53458984 1.12638672 -0.53458984 1.12638672 0 0 Z " fill="#5D7C2E" transform="translate(155,423)"/>
<path d="M0 0 C2.97 0 5.94 0 9 0 C9 11.55 9 23.1 9 35 C6.03 35 3.06 35 0 35 C0 23.45 0 11.9 0 0 Z " fill="#C7F12F" transform="translate(802,572)"/>
<path d="M0 0 C3.3 0 6.6 0 10 0 C10 9.9 10 19.8 10 30 C6.7 30 3.4 30 0 30 C0 20.1 0 10.2 0 0 Z " fill="#BCE52F" transform="translate(660,558)"/>
<path d="M0 0 C3.43796837 -0.08078777 6.87404727 -0.14039791 10.3125 -0.1875 C11.28896484 -0.21263672 12.26542969 -0.23777344 13.27148438 -0.26367188 C14.20927734 -0.27333984 15.14707031 -0.28300781 16.11328125 -0.29296875 C16.97735596 -0.3086792 17.84143066 -0.32438965 18.73168945 -0.34057617 C21 0 21 0 22.77807617 1.3347168 C24.70044463 3.95459197 24.44997388 5.85018283 24 9 C22.61328125 11.17578125 22.61328125 11.17578125 20 13 C16.57136856 13.4950146 13.20490383 13.37580882 9.75 13.25 C8.81414063 13.23195313 7.87828125 13.21390625 6.9140625 13.1953125 C4.60893562 13.14826909 2.30433646 13.07652778 0 13 C0 8.71 0 4.42 0 0 Z " fill="#092036" transform="translate(874,444)"/>
<path d="M0 0 C-1.33185691 1.61224783 -2.67687854 3.21452621 -4.06640625 4.77734375 C-5.44727692 6.36464761 -6.76150259 8.01093504 -8.02734375 9.69140625 C-13.71034343 16.5207204 -13.71034343 16.5207204 -18.11572266 17.44287109 C-23.11430345 17.86232503 -28.02108165 17.51984066 -33 17 C-31.66814309 15.38775217 -30.32312146 13.78547379 -28.93359375 12.22265625 C-27.55272308 10.63535239 -26.23849741 8.98906496 -24.97265625 7.30859375 C-17.57305387 -1.583578 -10.74474626 -1.12184126 0 0 Z " fill="#BBE527" transform="translate(277,585)"/>
<path d="M0 0 C-0.95285241 1.27654914 -1.90654779 2.55246909 -2.8605957 3.828125 C-3.39159378 4.5387207 -3.92259186 5.24931641 -4.46968079 5.98144531 C-6.29818504 8.39331847 -8.20122648 10.71638015 -10.1875 13 C-10.84105469 13.763125 -11.49460937 14.52625 -12.16796875 15.3125 C-14 17 -14 17 -17 17 C-19.31 12.05 -21.62 7.1 -24 2 C-53.7 1.505 -53.7 1.505 -84 1 C-84 0.67 -84 0.34 -84 0 C-76.44397112 -0.15626908 -68.88781564 -0.30435887 -61.33144283 -0.4429636 C-57.81991438 -0.5076114 -54.30847498 -0.57472358 -50.79711914 -0.64819336 C-33.8277092 -1.00127379 -16.95259435 -1.01552489 0 0 Z " fill="#516C3B" transform="translate(205,584)"/>
<path d="M0 0 C3.59446892 0.07211253 7.18908361 0.13605828 10.78369141 0.20080566 C17.77213032 0.32783064 24.76037495 0.46350617 31.74853516 0.60510254 C31.74853516 0.93510254 31.74853516 1.26510254 31.74853516 1.60510254 C11.94853516 1.93510254 -7.85146484 2.26510254 -28.25146484 2.60510254 C-30.56146484 7.55510254 -32.87146484 12.50510254 -35.25146484 17.60510254 C-40.02680876 16.41126656 -40.78775112 15.15109204 -43.75146484 11.35510254 C-44.50427734 10.40119629 -45.25708984 9.44729004 -46.03271484 8.46447754 C-46.76490234 7.52088379 -47.49708984 6.57729004 -48.25146484 5.60510254 C-49.5831661 3.93713152 -50.91625288 2.27026457 -52.25146484 0.60510254 C-34.81272889 -0.50610994 -17.45555325 -0.3577456 0 0 Z " fill="#4B692E" transform="translate(265.25146484375,583.3948974609375)"/>
<path d="M0 0 C9.57 0 19.14 0 29 0 C27.03261921 3.93476158 25.03118132 6.35841664 22.0625 9.5625 C21.18722656 10.51253906 20.31195313 11.46257812 19.41015625 12.44140625 C17.63377324 14.32719372 15.84967566 16.18695158 14 18 C12.22688737 16.08539961 10.45646638 14.16842507 8.6875 12.25 C8.18798828 11.71117187 7.68847656 11.17234375 7.17382812 10.6171875 C0 2.82574503 0 2.82574503 0 0 Z " fill="#A1C828" transform="translate(162,454)"/>
<path d="M0 0 C1.04465424 -0.00116821 2.08930847 -0.00233643 3.1656189 -0.00354004 C6.60275367 0.00201327 10.03637544 0.06414011 13.47290039 0.12695312 C15.8618429 0.14188132 18.25080997 0.1532656 20.63978577 0.16125488 C26.91549775 0.19174242 33.18971912 0.27027982 39.46484375 0.35888672 C45.87292314 0.44084911 52.28124434 0.47728879 58.68969727 0.51757812 C71.25478489 0.60327431 83.81884134 0.73819691 96.38305664 0.90820312 C96.38305664 1.23820312 96.38305664 1.56820313 96.38305664 1.90820312 C61.40305664 1.90820312 26.42305664 1.90820312 -9.61694336 1.90820312 C-7.96694336 5.53820312 -6.31694336 9.16820312 -4.61694336 12.90820312 C-4.61694336 14.22820312 -4.61694336 15.54820312 -4.61694336 16.90820312 C-10.88694336 16.90820312 -17.15694336 16.90820312 -23.61694336 16.90820312 C-19.61303711 11.43945312 -19.61303711 11.43945312 -17.61694336 8.90820312 C-17.17047675 8.25966621 -16.72401014 7.6111293 -16.26401424 6.94293976 C-11.44797787 0.54605328 -7.788695 -0.22967886 0 0 Z " fill="#496246" transform="translate(206.616943359375,420.091796875)"/>
<path d="M0 0 C4.02495297 1.58929218 6.37297655 4.2702505 9.25 7.4375 C10.14203125 8.40558594 11.0340625 9.37367188 11.953125 10.37109375 C14 13 14 13 14 16 C5.42 16 -3.16 16 -12 16 C-10.14773715 11.36934289 -8.2077809 8.68365252 -4.875 5.1875 C-4.40707031 4.68541016 -3.93914062 4.18332031 -3.45703125 3.66601562 C-2.31098175 2.43810545 -1.15634689 1.21821785 0 0 Z " fill="#9FC628" transform="translate(208,553)"/>
<path d="M0 0 C-2.31 5.61 -4.62 11.22 -7 17 C-13.27 17 -19.54 17 -26 17 C-24.02 14.69 -22.04 12.38 -20 10 C-19.20078125 9.05253906 -18.4015625 8.10507812 -17.578125 7.12890625 C-11.75759282 0.71264847 -8.68565739 -1.2408082 0 0 Z " fill="#CDF340" transform="translate(156,422)"/>
<path d="M0 0 C0.91119598 -0.00960754 1.82239197 -0.01921509 2.76119995 -0.02911377 C3.75282135 -0.03336365 4.74444275 -0.03761353 5.76611328 -0.04199219 C6.77860138 -0.04769226 7.79108948 -0.05339233 8.83425903 -0.05926514 C10.98129221 -0.06873135 13.12834002 -0.07525552 15.27539062 -0.07910156 C18.56552415 -0.08880554 21.85503284 -0.11981329 25.14501953 -0.15136719 C27.22704706 -0.157897 29.30907907 -0.16314755 31.39111328 -0.16699219 C32.37868622 -0.17933899 33.36625916 -0.19168579 34.38375854 -0.20440674 C35.30125885 -0.20140564 36.21875916 -0.19840454 37.1640625 -0.1953125 C38.37532303 -0.20078094 38.37532303 -0.20078094 39.61105347 -0.20635986 C42.24617965 0.25469629 43.14632085 1.01746666 44.71142578 3.16113281 C44.71142578 4.15113281 44.71142578 5.14113281 44.71142578 6.16113281 C41.10741097 6.2481432 37.50366566 6.30152669 33.89892578 6.34863281 C32.36268555 6.38633789 32.36268555 6.38633789 30.79541016 6.42480469 C29.32104492 6.43930664 29.32104492 6.43930664 27.81689453 6.45410156 C26.45794067 6.47766724 26.45794067 6.47766724 25.0715332 6.50170898 C22.28698372 6.09988354 21.43543044 5.32424719 19.71142578 3.16113281 C17.02087298 4.38121225 17.02087298 4.38121225 14.71142578 6.16113281 C13.07669696 6.24813623 11.43828523 6.26814344 9.80126953 6.25878906 C8.81191406 6.25556641 7.82255859 6.25234375 6.80322266 6.24902344 C5.76230469 6.24064453 4.72138672 6.23226562 3.64892578 6.22363281 C2.60414063 6.21912109 1.55935547 6.21460938 0.48291016 6.20996094 C-2.10764082 6.19813194 -4.6980798 6.18164971 -7.28857422 6.16113281 C-4.93498889 0.04181096 -4.93498889 0.04181096 0 0 Z " fill="#5F802B" transform="translate(190.28857421875,577.8388671875)"/>
<path d="M0 0 C3.45195767 1.4258086 5.1014256 3.09746334 7.25 6.125 C7.77078125 6.84945313 8.2915625 7.57390625 8.828125 8.3203125 C9.40820312 9.15175781 9.40820312 9.15175781 10 10 C9.46890625 10.45890625 8.9378125 10.9178125 8.390625 11.390625 C4.81675301 14.49493717 1.28145941 17.58181312 -2 21 C-5.45195767 19.5741914 -7.1014256 17.90253666 -9.25 14.875 C-10.03117187 13.78832031 -10.03117187 13.78832031 -10.828125 12.6796875 C-11.21484375 12.12539063 -11.6015625 11.57109375 -12 11 C-11.46890625 10.54109375 -10.9378125 10.0821875 -10.390625 9.609375 C-6.81675301 6.50506283 -3.28145941 3.41818688 0 0 Z " fill="#CAEF40" transform="translate(106,462)"/>
<path d="M0 0 C3 3 6 6 9 9 C7.46356148 12.68069887 5.21849055 14.98775204 2.375 17.75 C1.55773437 18.54921875 0.74046875 19.3484375 -0.1015625 20.171875 C-0.72804688 20.77515625 -1.35453125 21.3784375 -2 22 C-5.77519562 20.23770311 -8.30729323 18.23124812 -11 15 C-10.82360069 10.96801588 -8.30388395 9.02804209 -5.5 6.375 C-2.33306837 3.49722976 -2.33306837 3.49722976 0 0 Z " fill="#DAF381" transform="translate(272,529)"/>
<path d="M0 0 C4.17808845 2.08904423 6.15496552 4.0610728 9.25 7.5 C9.70890625 7.99886719 10.1678125 8.49773437 10.640625 9.01171875 C14 12.74102493 14 12.74102493 14 15 C6.41 15 -1.18 15 -9 15 C-9.66 13.68 -10.32 12.36 -11 11 C-7.37 7.37 -3.74 3.74 0 0 Z " fill="#EEF9C6" transform="translate(131,491)"/>
<path d="M0 0 C7.26 0 14.52 0 22 0 C22 3.3 22 6.6 22 10 C14.74 10 7.48 10 0 10 C0 6.7 0 3.4 0 0 Z " fill="#B9E22F" transform="translate(971,578)"/>
<path d="M0 0 C12.21 0 24.42 0 37 0 C35.71808004 5.12767985 35.71808004 5.12767985 33 7 C28.74373684 7.58967158 24.46795107 7.5150041 20.17602539 7.50097656 C18.07233651 7.50000454 15.97230224 7.54161376 13.86914062 7.5859375 C12.52865342 7.59114526 11.18815357 7.59383268 9.84765625 7.59375 C8.63086182 7.60083984 7.41406738 7.60792969 6.16040039 7.61523438 C3 7 3 7 0.57202148 4.46289062 C-0.20612915 3.24375977 -0.20612915 3.24375977 -1 2 C-0.67 1.34 -0.34 0.68 0 0 Z " fill="#89AD29" transform="translate(158,448)"/>
<path d="M0 0 C1.66666667 1.66666667 3.33333333 3.33333333 5 5 C5.61875 5.515625 6.2375 6.03125 6.875 6.5625 C8 8 8 8 7.88671875 9.76171875 C6.60095975 13.007269 4.43923423 14.84326833 1.9375 17.25 C1.01839844 18.14203125 0.09929687 19.0340625 -0.84765625 19.953125 C-1.55792969 20.62859375 -2.26820313 21.3040625 -3 22 C-4.15518918 21.09515208 -5.29885406 20.1755794 -6.4375 19.25 C-7.07558594 18.73953125 -7.71367187 18.2290625 -8.37109375 17.703125 C-10.2993892 15.68696956 -11.03634724 14.81431498 -11 12 C-8.9453125 9.4921875 -8.9453125 9.4921875 -6.125 6.875 C-2.60763913 3.78157269 -2.60763913 3.78157269 0 0 Z " fill="#B9E327" transform="translate(292,552)"/>
<path d="M0 0 C7.59 0 15.18 0 23 0 C23 4 23 4 20.8125 6.578125 C19.884375 7.45984375 18.95625 8.3415625 18 9.25 C17.071875 10.14203125 16.14375 11.0340625 15.1875 11.953125 C14.465625 12.62859375 13.74375 13.3040625 13 14 C8.94065655 12.44515973 6.92149038 9.78559333 4.25 6.4375 C3.45078125 5.44621094 2.6515625 4.45492187 1.828125 3.43359375 C0 1 0 1 0 0 Z " fill="#EDF8C4" transform="translate(240,518)"/>
<path d="M0 0 C0.66 1.32 1.32 2.64 2 4 C21.8 4 41.6 4 62 4 C61.67 4.66 61.34 5.32 61 6 C60.26750534 5.99555878 59.53501068 5.99111755 58.78031921 5.98654175 C51.87940322 5.94647828 44.9785046 5.91602233 38.07750225 5.89637566 C34.52956369 5.88593556 30.98172117 5.87177237 27.43383789 5.84912109 C23.35562209 5.82324669 19.27750729 5.8135291 15.19921875 5.8046875 C13.92414963 5.79436493 12.64908051 5.78404236 11.33537292 5.77340698 C10.15437515 5.77325592 8.97337738 5.77310486 7.7565918 5.77294922 C6.19439156 5.76628738 6.19439156 5.76628738 4.60063171 5.75949097 C1.76380989 5.81388357 1.76380989 5.81388357 -1 8 C-3.36010742 8.13525391 -3.36010742 8.13525391 -6.10546875 7.9765625 C-7.57983398 7.89921875 -7.57983398 7.89921875 -9.08398438 7.8203125 C-10.10814453 7.75585938 -11.13230469 7.69140625 -12.1875 7.625 C-13.22326172 7.56828125 -14.25902344 7.5115625 -15.32617188 7.453125 C-17.88481271 7.31163334 -20.44247484 7.16022134 -23 7 C-21.609375 4.51953125 -21.609375 4.51953125 -19 2 C-15.7357147 1.36209041 -12.56039577 1.52858144 -9.25 1.6875 C-7.91775391 1.72133789 -7.91775391 1.72133789 -6.55859375 1.75585938 C-4.37067188 1.81467448 -2.18620329 1.89678732 0 2 C0 1.34 0 0.68 0 0 Z " fill="#64813E" transform="translate(202,435)"/>
<path d="M0 0 C1.29292969 -0.02449219 2.58585937 -0.04898438 3.91796875 -0.07421875 C5.15933594 -0.07808594 6.40070313 -0.08195313 7.6796875 -0.0859375 C9.38874268 -0.09826416 9.38874268 -0.09826416 11.13232422 -0.11083984 C14.74311485 0.47534659 15.93416817 1.49965881 18.125 4.375 C18.125 5.035 18.125 5.695 18.125 6.375 C6.245 6.375 -5.635 6.375 -17.875 6.375 C-13.7848645 -1.80527099 -8.38634931 0.00831155 0 0 Z " fill="#8AAF29" transform="translate(208.875,567.625)"/>
<path d="M0 0 C2.06232699 2.06232699 2.56808484 3.15594031 3.5078125 5.84375 C3.77207031 6.59527344 4.03632812 7.34679687 4.30859375 8.12109375 C4.57800781 8.90613281 4.84742188 9.69117188 5.125 10.5 C5.40214844 11.28503906 5.67929687 12.07007813 5.96484375 12.87890625 C8 18.72371459 8 18.72371459 8 21 C3.05 21 -1.9 21 -7 21 C-6.33577702 17.67888508 -5.76292144 15.08168801 -4.58984375 12.01171875 C-4.32236328 11.30595703 -4.05488281 10.60019531 -3.77929688 9.87304688 C-3.50150391 9.15181641 -3.22371094 8.43058594 -2.9375 7.6875 C-2.51500977 6.57665039 -2.51500977 6.57665039 -2.08398438 5.44335938 C-1.39281425 3.62757345 -0.69688311 1.81360101 0 0 Z " fill="#0E243A" transform="translate(771,455)"/>
<path d="M0 0 C3.3 0 6.6 0 10 0 C10 5.28 10 10.56 10 16 C6.7 16 3.4 16 0 16 C0 10.72 0 5.44 0 0 Z " fill="#C0E92F" transform="translate(887,591)"/>
<path d="M0 0 C3.3 0 6.6 0 10 0 C10 5.28 10 10.56 10 16 C6.7 16 3.4 16 0 16 C0 10.72 0 5.44 0 0 Z " fill="#BCE52F" transform="translate(529,591)"/>
<path d="M0 0 C1.27875 0.20625 2.5575 0.4125 3.875 0.625 C1.91297925 3.00007775 -0.08511369 5.31745466 -2.125 7.625 C-2.88683594 8.51316406 -3.64867187 9.40132812 -4.43359375 10.31640625 C-10.80862934 17.30805994 -10.80862934 17.30805994 -14.76953125 18.26171875 C-17.25 18.25 -17.25 18.25 -21.125 17.625 C-19.16297925 15.24992225 -17.16488631 12.93254534 -15.125 10.625 C-14.36316406 9.73683594 -13.60132813 8.84867188 -12.81640625 7.93359375 C-5.55855869 -0.02626091 -5.55855869 -0.02626091 0 0 Z " fill="#CBF236" transform="translate(256.125,584.375)"/>
<path d="M0 0 C0.33 0.66 0.66 1.32 1 2 C1.60585937 2.13792969 2.21171875 2.27585937 2.8359375 2.41796875 C5.54762258 3.14728477 6.67943766 4.31122772 8.625 6.3125 C9.21539062 6.90675781 9.80578125 7.50101562 10.4140625 8.11328125 C12 10 12 10 14 14 C7.73 14 1.46 14 -5 14 C-4.23539233 10.17696167 -3.52385218 7.61606762 -1.9375 4.1875 C-1.39416016 3.00220703 -1.39416016 3.00220703 -0.83984375 1.79296875 C-0.56269531 1.20128906 -0.28554687 0.60960937 0 0 Z " fill="#45632D" transform="translate(155,423)"/>
<path d="M0 0 C4.875 4.625 4.875 4.625 6 8 C6.66 8 7.32 8 8 8 C8 8.66 8 9.32 8 10 C-13.12 10 -34.24 10 -56 10 C-56 9.67 -56 9.34 -56 9 C-55.12462585 9.00785522 -55.12462585 9.00785522 -54.23156738 9.01586914 C-48.13097429 9.06273062 -42.03226081 9.05342744 -35.93164062 9.01220703 C-33.6582091 9.00411998 -31.38468037 9.01012466 -29.11132812 9.03076172 C-25.83336021 9.05803028 -22.55908909 9.03382186 -19.28125 9 C-17.76827332 9.02912476 -17.76827332 9.02912476 -16.22473145 9.05883789 C-10.41192202 8.94131874 -7.48370358 8.10469242 -3.29492188 3.9375 C-2.16903129 2.64858357 -1.06025966 1.34342272 0 0 Z " fill="#324E2D" transform="translate(328,593)"/>
<path d="M0 0 C5.94 0 11.88 0 18 0 C16.9814744 4.07410238 16.17407101 5.26464981 13.4375 8.25 C12.79683594 8.95640625 12.15617188 9.6628125 11.49609375 10.390625 C11.00238281 10.92171875 10.50867188 11.4528125 10 12 C6.15216516 8.93922229 2.85267377 6.05957421 0 2 C0 1.34 0 0.68 0 0 Z " fill="#BDE62C" transform="translate(167,460)"/>
<path d="M0 0 C3.1489715 1.36911804 5.0478487 2.8752136 7.25 5.5 C7.77078125 6.1084375 8.2915625 6.716875 8.828125 7.34375 C10 9 10 9 10 11 C4.06 11 -1.88 11 -8 11 C-6.4005386 7.80107719 -5.17187081 5.84646265 -2.875 3.25 C-2.33617187 2.63640625 -1.79734375 2.0228125 -1.2421875 1.390625 C-0.62730469 0.70226562 -0.62730469 0.70226562 0 0 Z " fill="#B4DD27" transform="translate(208,553)"/>
<path d="M0 0 C5.28 0 10.56 0 16 0 C14.04377848 3.2603692 12.38502168 5.96165378 10 8.8125 C9.505 9.41707031 9.01 10.02164063 8.5 10.64453125 C7 12 7 12 4 12 C3.32332002 10.75539217 2.65905281 9.50403104 2 8.25 C1.62875 7.55390625 1.2575 6.8578125 0.875 6.140625 C0 4 0 4 0 0 Z " fill="#38542E" transform="translate(184,589)"/>
<path d="M0 0 C5.28 0 10.56 0 16 0 C15.16687441 4.99875355 14.34505694 7.71772212 12 12 C8.95933939 11.67127993 8.01097527 11.01153605 5.859375 8.75 C5.16328125 7.8425 4.4671875 6.935 3.75 6 C3.04359375 5.0925 2.3371875 4.185 1.609375 3.25 C0 1 0 1 0 0 Z " fill="#34502D" transform="translate(218,589)"/>
<path d="M0 0 C3.3 0 6.6 0 10 0 C8.68 4.62 7.36 9.24 6 14 C3.69 14 1.38 14 -1 14 C-0.67 9.38 -0.34 4.76 0 0 Z " fill="#C1EA2F" transform="translate(1019,600)"/>
<path d="M0 0 C2.0625 1.75 2.0625 1.75 4 4 C3.85319758 8.25727025 0.84700535 10.45098219 -2.0625 13.25 C-2.98160156 14.14203125 -3.90070313 15.0340625 -4.84765625 15.953125 C-5.55792969 16.62859375 -6.26820313 17.3040625 -7 18 C-8.65 16.35 -10.3 14.7 -12 13 C-11.21753906 12.22914063 -10.43507813 11.45828125 -9.62890625 10.6640625 C-8.60663943 9.65117427 -7.58451119 8.63814616 -6.5625 7.625 C-6.04623047 7.11710938 -5.52996094 6.60921875 -4.99804688 6.0859375 C-2.142867 3.31431064 -2.142867 3.31431064 0 0 Z " fill="#C8EF36" transform="translate(288,547)"/>
<path d="M0 0 C1.32 0.66 2.64 1.32 4 2 C4 6 4 6 1.8125 8.578125 C0.884375 9.45984375 -0.04375 10.3415625 -1 11.25 C-1.928125 12.14203125 -2.85625 13.0340625 -3.8125 13.953125 C-4.534375 14.62859375 -5.25625 15.3040625 -6 16 C-9.16115776 14.63016497 -9.9927092 14.0109362 -12 11 C-11.46890625 10.54109375 -10.9378125 10.0821875 -10.390625 9.609375 C-6.81675301 6.50506283 -3.28145941 3.41818688 0 0 Z " fill="#D8F46D" transform="translate(276,535)"/>
<path d="M0 0 C1.32 0.99 2.64 1.98 4 3 C3.51061681 7.27461239 1.04257174 9.32551066 -1.9375 12.25 C-2.83339844 13.14203125 -3.72929687 14.0340625 -4.65234375 14.953125 C-7 17 -7 17 -9 17 C-9.99 15.35 -10.98 13.7 -12 12 C-8.04 8.04 -4.08 4.08 0 0 Z " fill="#E7F7A9" transform="translate(264,520)"/>
<path d="M0 0 C0.99 1.65 1.98 3.3 3 5 C-0.96 8.96 -4.92 12.92 -9 17 C-10.32 16.01 -11.64 15.02 -13 14 C-12.51061681 9.72538761 -10.04257174 7.67448934 -7.0625 4.75 C-6.16660156 3.85796875 -5.27070312 2.9659375 -4.34765625 2.046875 C-2 0 -2 0 0 0 Z " fill="#E0F58F" transform="translate(125,481)"/>
<path d="M0 0 C3.16115776 1.36983503 3.9927092 1.9890638 6 5 C5.46890625 5.45890625 4.9378125 5.9178125 4.390625 6.390625 C0.81675301 9.49493717 -2.71854059 12.58181312 -6 16 C-7.32 15.34 -8.64 14.68 -10 14 C-10 10 -10 10 -7.8125 7.421875 C-6.884375 6.54015625 -5.95625 5.6584375 -5 4.75 C-4.071875 3.85796875 -3.14375 2.9659375 -2.1875 2.046875 C-1.465625 1.37140625 -0.74375 0.6959375 0 0 Z " fill="#D1F354" transform="translate(110,467)"/>
<path d="M0 0 C0.99 0.99 1.98 1.98 3 3 C1.46356148 6.68069887 -0.78150945 8.98775204 -3.625 11.75 C-4.44226563 12.54921875 -5.25953125 13.3484375 -6.1015625 14.171875 C-6.72804688 14.77515625 -7.35453125 15.3784375 -8 16 C-11.875 14.25 -11.875 14.25 -13 12 C-12.48050781 11.55269531 -11.96101563 11.10539063 -11.42578125 10.64453125 C-7.47320346 7.21798969 -3.64172918 3.75553321 0 0 Z " fill="#D0F05B" transform="translate(281,539)"/>
<path d="M0 0 C3.875 1.75 3.875 1.75 5 4 C4.46890625 4.45890625 3.9378125 4.9178125 3.390625 5.390625 C-0.18324699 8.49493717 -3.71854059 11.58181312 -7 15 C-8.32 14.34 -9.64 13.68 -11 13 C-9.46356148 9.31930113 -7.21849055 7.01224796 -4.375 4.25 C-3.55773437 3.45078125 -2.74046875 2.6515625 -1.8984375 1.828125 C-0.95871094 0.92320312 -0.95871094 0.92320312 0 0 Z " fill="#EAF8B5" transform="translate(131,491)"/>
<path d="M0 0 C1.32830615 3.98491845 0.23204404 5.40048548 -1.4375 9.1875 C-1.91058594 10.27417969 -2.38367188 11.36085938 -2.87109375 12.48046875 C-3.24363281 13.31191406 -3.61617187 14.14335937 -4 15 C-7.3 15 -10.6 15 -14 15 C-9.59156563 9.70987876 -4.92440206 4.81191572 0 0 Z " fill="#CFF151" transform="translate(153,424)"/>
<path d="M0 0 C0.33 0.66 0.66 1.32 1 2 C1.5775 2.0825 2.155 2.165 2.75 2.25 C6.30434184 3.43478061 7.74934597 6.06164613 10 9 C6.04 9 2.08 9 -2 9 C-1.125 2.25 -1.125 2.25 0 0 Z " fill="#304C2F" transform="translate(155,423)"/>
<path d="M0 0 C0.99 0.33 1.98 0.66 3 1 C4.1875 4.5625 4.1875 4.5625 5 8 C1.04 8 -2.92 8 -7 8 C-1.125 1.125 -1.125 1.125 0 0 Z " fill="#2A442F" transform="translate(195,423)"/>
<path d="M0 0 C2.86697492 1.28519565 4.97607712 2.57129254 7 5 C7 5.66 7 6.32 7 7 C3.04 7 -0.92 7 -5 7 C-3.38262276 3.76524552 -2.52370777 2.29427979 0 0 Z " fill="#BFE928" transform="translate(208,553)"/>
<path d="M0 0 C3.24271506 0.5590888 4.93057424 1.4132178 7 4 C7 4.66 7 5.32 7 6 C3.04 6 -0.92 6 -5 6 C-3.35 4.02 -1.7 2.04 0 0 Z " fill="#F0F6D8" transform="translate(138,500)"/>
<path d="M0 0 C5.94 0 11.88 0 18 0 C17.67 0.99 17.34 1.98 17 3 C11.72 3 6.44 3 1 3 C0.67 2.01 0.34 1.02 0 0 Z " fill="#B1DA28" transform="translate(167,460)"/>
<path d="M0 0 C2.97 0 5.94 0 9 0 C8.34 1.98 7.68 3.96 7 6 C5.1875 5.8125 5.1875 5.8125 3 5 C1.25 2.4375 1.25 2.4375 0 0 Z " fill="#1C362F" transform="translate(223,595)"/>
<path d="M0 0 C1.134375 0.020625 2.26875 0.04125 3.4375 0.0625 C1.625 3.0625 1.625 3.0625 -0.5625 6.0625 C-1.5525 6.0625 -2.5425 6.0625 -3.5625 6.0625 C-3.94468767 4.40635343 -4.27645102 2.73792976 -4.5625 1.0625 C-3.5625 0.0625 -3.5625 0.0625 0 0 Z " fill="#1B352F" transform="translate(191.5625,594.9375)"/>
<path d="M0 0 C0.66 0.33 1.32 0.66 2 1 C2 1.66 2 2.32 2 3 C8.27 3 14.54 3 21 3 C21 3.33 21 3.66 21 4 C13.08 4 5.16 4 -3 4 C-2.01 2.68 -1.02 1.36 0 0 Z " fill="#C3CBBF" transform="translate(69,568)"/>
<path d="M0 0 C1.2065625 0.0309375 1.2065625 0.0309375 2.4375 0.0625 C1.48328192 1.21176266 0.52397955 2.35680541 -0.4375 3.5 C-0.97117188 4.13808594 -1.50484375 4.77617188 -2.0546875 5.43359375 C-3.5625 7.0625 -3.5625 7.0625 -5.5625 8.0625 C-3.38616071 0.08258929 -3.38616071 0.08258929 0 0 Z " fill="#CDEE56" transform="translate(239.5625,584.9375)"/>
<path d="M0 0 C3.875 1.75 3.875 1.75 5 4 C-1.625 5 -1.625 5 -5 5 C-3.35 3.35 -1.7 1.7 0 0 Z " fill="#B8DF33" transform="translate(208,553)"/>
<path d="M0 0 C3.3 0 6.6 0 10 0 C9.67 0.66 9.34 1.32 9 2 C6.97511372 2.28926947 4.94755984 2.57272154 2.91015625 2.75390625 C0.91747967 2.90406878 0.91747967 2.90406878 -1 4 C-0.67 2.68 -0.34 1.36 0 0 Z " fill="#2A452E" transform="translate(187,593)"/>
<path d="M0 0 C2.64 0 5.28 0 8 0 C6.515 1.98 6.515 1.98 5 4 C3.0625 3.6875 3.0625 3.6875 1 3 C0.67 2.01 0.34 1.02 0 0 Z " fill="#EDF3DB" transform="translate(240,518)"/>
</svg>
