<?xml version="1.0" encoding="UTF-8"?>
<svg version="1.1" xmlns="http://www.w3.org/2000/svg" width="1280" height="1024">
<path d="M0 0 C422.4 0 844.8 0 1280 0 C1280 337.92 1280 675.84 1280 1024 C857.6 1024 435.2 1024 0 1024 C0 686.08 0 348.16 0 0 Z " fill="#041B2F" transform="translate(0,0)"/>
<path d="M0 0 C50.87249707 -0.11437281 101.74498118 -0.20251197 152.61758147 -0.25532665 C158.61964762 -0.2615804 164.62171352 -0.26805199 170.6237793 -0.2746582 C171.81871365 -0.27596976 173.01364801 -0.27728131 174.2447925 -0.2786326 C193.60870072 -0.30040615 212.97253494 -0.33983842 232.33639922 -0.38576398 C252.19638668 -0.43247437 272.05633531 -0.46028392 291.91637546 -0.47044247 C304.17720615 -0.47731287 316.43782768 -0.49903454 328.69859401 -0.53958233 C337.09922259 -0.56595382 345.4997426 -0.5740137 353.9004096 -0.56750689 C358.75168596 -0.56429528 363.60259612 -0.56931688 368.45380783 -0.59602737 C372.89219575 -0.62028717 377.32996984 -0.62163522 381.76838551 -0.60449447 C383.37682069 -0.60237479 384.98529355 -0.60877918 386.59365412 -0.62441591 C388.7757967 -0.64440312 390.95570631 -0.63372205 393.13781261 -0.61523914 C394.35101907 -0.61713775 395.56422552 -0.61903635 396.81419581 -0.62099248 C400.92045753 0.17942007 402.33515179 1.85503679 405 5 C405.77859375 5.82757813 406.5571875 6.65515625 407.359375 7.5078125 C412.33311645 12.9529216 417.08855861 18.51117123 421.71875 24.25 C424.86547815 28.04331612 428.20889115 31.64094315 431.546875 35.265625 C433.87716268 37.86307942 436.07247168 40.52405714 438.25 43.25 C441.97146639 47.86884126 445.92762431 52.19389689 450 56.5 C454.86126425 61.64056551 459.47210111 66.88260214 463.890625 72.4140625 C467.43084006 76.75410392 471.21428682 80.87419911 475 85 C478.54419562 82.32954705 481.27879134 79.62217832 484 76.125 C487.69934944 71.50390631 491.57583086 67.12953102 495.625 62.8125 C496.19081787 62.20873535 496.75663574 61.6049707 497.33959961 60.98291016 C497.8888208 60.39687012 498.43804199 59.81083008 499.00390625 59.20703125 C502.89030168 55.05986814 506.61608947 50.79087621 510.30712891 46.46972656 C511.82934067 44.68779854 513.35206974 42.90631399 514.875 41.125 C515.39497559 40.51615967 515.91495117 39.90731934 516.45068359 39.2800293 C519.47944776 35.74299739 522.55179463 32.25573515 525.6875 28.8125 C528.6791816 25.52057795 531.52524423 22.15408693 534.3125 18.6875 C535.02263426 17.83252825 535.73276851 16.97755651 536.46442199 16.09667653 C538.20948684 13.99465579 539.86279995 11.84577873 541.49549508 9.65579015 C545.72990122 4.24770099 549.53676184 -0.47085889 556.71136735 -1.46553262 C560.3864433 -1.70669457 564.02499107 -1.65712186 567.70452881 -1.56330872 C569.37308328 -1.56898707 571.04162629 -1.58038695 572.71010804 -1.59696788 C577.26793532 -1.62588673 581.82175278 -1.57426848 586.37906933 -1.50885308 C591.30323262 -1.45250022 596.2271856 -1.47172557 601.15158081 -1.48158264 C609.67410251 -1.48838617 618.19532641 -1.44774056 626.71752167 -1.37449074 C639.03881706 -1.26865613 651.35948749 -1.23496376 663.68118814 -1.21864685 C683.67388186 -1.19022287 703.66588447 -1.10378652 723.65820312 -0.98071289 C743.07418367 -0.86131181 762.48997624 -0.76932884 781.90625 -0.71411133 C783.70267931 -0.70898822 783.70267931 -0.70898822 785.53540012 -0.70376161 C791.54374797 -0.68679563 797.55209715 -0.67036755 803.56044722 -0.65420687 C853.37410901 -0.51952749 903.18702073 -0.29063435 953 0 C952.05263689 1.27606056 951.10347472 2.5507856 950.15356445 3.82495117 C949.62519485 4.53495773 949.09682526 5.24496429 948.55244446 5.97648621 C946.5694537 8.56119005 944.41530716 10.93691127 942.1875 13.3125 C938.84825689 16.93084403 935.6476694 20.60038967 932.5625 24.4375 C928.90428985 28.97316443 925.05257035 33.2570117 921.08618164 37.51928711 C918.09573 40.75193975 915.26220993 44.06696766 912.5 47.5 C908.86500611 52.01777813 905.0328971 56.27818516 901.0859375 60.51953125 C898.09558642 63.75211747 895.26213671 67.06705866 892.5 70.5 C888.86500611 75.01777813 885.0328971 79.27818516 881.0859375 83.51953125 C878.09558642 86.75211747 875.26213671 90.06705866 872.5 93.5 C868.86500611 98.01777813 865.0328971 102.27818516 861.0859375 106.51953125 C858.09558642 109.75211747 855.26213671 113.06705866 852.5 116.5 C848.86500611 121.01777813 845.0328971 125.27818516 841.0859375 129.51953125 C838.09558642 132.75211747 835.26213671 136.06705866 832.5 139.5 C828.86500611 144.01777813 825.0328971 148.27818516 821.0859375 152.51953125 C818.09558642 155.75211747 815.26213671 159.06705866 812.5 162.5 C808.86500611 167.01777813 805.0328971 171.27818516 801.0859375 175.51953125 C798.09558642 178.75211747 795.26213671 182.06705866 792.5 185.5 C788.86500611 190.01777813 785.0328971 194.27818516 781.0859375 198.51953125 C778.09558642 201.75211747 775.26213671 205.06705866 772.5 208.5 C768.86500611 213.01777813 765.0328971 217.27818516 761.0859375 221.51953125 C758.09558642 224.75211747 755.26213671 228.06705866 752.5 231.5 C749.30068278 235.47629426 745.97415055 239.26668298 742.5 243 C738.2104224 247.61001639 734.19589103 252.37783236 730.24609375 257.28515625 C727.11832821 261.06567286 723.78726117 264.64480875 720.46484375 268.25390625 C718.07292703 270.91875166 715.80745116 273.64831825 713.5625 276.4375 C709.90428985 280.97316443 706.05257035 285.2570117 702.08618164 289.51928711 C699.09573 292.75193975 696.26220993 296.06696766 693.5 299.5 C689.86500611 304.01777813 686.0328971 308.27818516 682.0859375 312.51953125 C679.09558642 315.75211747 676.26213671 319.06705866 673.5 322.5 C669.86500611 327.01777813 666.0328971 331.27818516 662.0859375 335.51953125 C659.09558642 338.75211747 656.26213671 342.06705866 653.5 345.5 C649.8643595 350.01858176 646.03163598 354.27983329 642.08374023 358.52172852 C639.11284372 361.7329905 636.30038923 365.02627815 633.5625 368.4375 C629.71954521 373.21541338 625.63168671 377.68994984 621.44384766 382.16162109 C617.52415468 386.37082976 613.88733712 390.75743963 610.28515625 395.2421875 C606.85652408 399.37998974 603.20107087 403.29671107 599.55078125 407.23828125 C595.32666728 411.81170939 591.26567752 416.51670681 587.22265625 421.25 C586.19012862 422.45835423 585.15757589 423.66668701 584.125 424.875 C583.35397949 425.77822998 583.35397949 425.77822998 582.56738281 426.69970703 C578.67452591 431.24710423 574.69498464 435.70131401 570.64453125 440.109375 C568.94218348 441.90764735 568.94218348 441.90764735 568 444 C567.34 444 566.68 444 566 444 C565.76410156 444.55558594 565.52820313 445.11117188 565.28515625 445.68359375 C563.6872248 448.56375591 561.694995 450.66369076 559.4375 453.0625 C556.0046517 456.75363459 552.72061908 460.50410259 549.5625 464.4375 C545.90493736 468.97236161 542.05382973 473.25536183 538.08837891 477.51708984 C534.28601193 481.62779276 530.75729408 485.92275584 527.24609375 490.28515625 C524.11832821 494.06567286 520.78726117 497.64480875 517.46484375 501.25390625 C515.07292703 503.91875166 512.80745116 506.64831825 510.5625 509.4375 C506.90428985 513.97316443 503.05257035 518.2570117 499.08618164 522.51928711 C496.09573 525.75193975 493.26220993 529.06696766 490.5 532.5 C486.87100567 537.01032152 483.04842275 541.26712847 479.10351562 545.49755859 C475.14102284 549.77442404 471.48567721 554.24059325 467.875 558.8203125 C466 561 466 561 463 563 C460.19062242 563.1844298 457.48188305 563.25221089 454.6730957 563.22705078 C453.39959763 563.22748886 453.39959763 563.22748886 452.10037231 563.22793579 C449.29207159 563.22654163 446.48403567 563.21097636 443.67578125 563.1953125 C441.72950892 563.19158268 439.78323472 563.18873556 437.83695984 563.18673706 C432.71262433 563.17909819 427.58840207 563.15944748 422.46411133 563.1373291 C417.23585543 563.11687617 412.00758124 563.10773652 406.77929688 563.09765625 C396.51948148 563.07620186 386.25975015 563.04206282 376 563 C376.93778202 561.73271135 377.87794902 560.46718739 378.8190918 559.20239258 C379.34238571 558.4974617 379.86567963 557.79253082 380.40483093 557.0662384 C382.69689423 554.09730595 385.22518356 551.39804235 387.8125 548.6875 C392.34049489 543.86841472 396.58190357 538.90518705 400.72265625 533.74609375 C403.21826469 530.73680948 405.83765143 527.86061346 408.5 525 C411.97419243 521.26672745 415.3006871 517.47628889 418.5 513.5 C421.69931722 509.52370574 425.02584945 505.73331702 428.5 502 C432.78635611 497.39344575 436.79752011 492.62872727 440.74609375 487.7265625 C443.92712749 483.87844889 447.29559614 480.21568518 450.671875 476.5390625 C456.32863817 470.3697738 461.73571193 463.9818325 467.17749023 457.62353516 C473.63140636 450.08650689 480.14069255 442.59757612 486.64550781 435.10449219 C492.94641765 427.84515518 499.23170301 420.57336478 505.48071289 413.26928711 C509.68113124 408.36317091 513.91078453 403.48282543 518.14453125 398.60546875 C521.77832628 394.41663104 525.39501208 390.2136454 529 386 C534.75736847 379.27185179 540.55421872 372.5784632 546.35888672 365.89111328 C549.07421217 362.76214706 551.7869838 359.63096844 554.5 356.5 C555.58332094 355.24998926 556.66665428 353.99998926 557.75 352.75 C558.28625 352.13125 558.8225 351.5125 559.375 350.875 C577.24999999 330.25000001 577.24999999 330.25000001 578.87524414 328.37475586 C579.95781325 327.12561263 581.04033284 325.87642648 582.12280273 324.62719727 C584.84242277 321.48873365 587.56291804 318.35103681 590.28515625 315.21484375 C591.37767098 313.95578714 592.47011913 312.69667275 593.5625 311.4375 C594.09842773 310.81979736 594.63435547 310.20209473 595.18652344 309.56567383 C599.39932158 304.70489992 603.57878206 299.81619543 607.75537109 294.92431641 C610.68262923 291.50609717 613.65809681 288.14116832 616.6875 284.8125 C619.69814479 281.4991692 622.56565178 278.11058071 625.375 274.625 C629.05571847 270.07219493 632.92648648 265.76582589 636.91137695 261.4831543 C640.71385014 257.37239043 644.24263299 253.07733477 647.75390625 248.71484375 C650.88167179 244.93432714 654.21273883 241.35519125 657.53515625 237.74609375 C659.92707297 235.08124834 662.19254884 232.35168175 664.4375 229.5625 C668.09571015 225.02683557 671.94742965 220.7429883 675.91381836 216.48071289 C678.90427 213.24806025 681.73779007 209.93303234 684.5 206.5 C687.69931722 202.52370574 691.02584945 198.73331702 694.5 195 C698.7895776 190.38998361 702.80410897 185.62216764 706.75390625 180.71484375 C709.88167179 176.93432714 713.21273883 173.35519125 716.53515625 169.74609375 C718.92707297 167.08124834 721.19254884 164.35168175 723.4375 161.5625 C727.09571015 157.02683557 730.94742965 152.7429883 734.91381836 148.48071289 C737.90427 145.24806025 740.73779007 141.93303234 743.5 138.5 C746.69931722 134.52370574 750.02584945 130.73331702 753.5 127 C757.7895776 122.38998361 761.80410897 117.62216764 765.75390625 112.71484375 C768.88167179 108.93432714 772.21273883 105.35519125 775.53515625 101.74609375 C777.92707297 99.08124834 780.19254884 96.35168175 782.4375 93.5625 C786.50838106 88.51893055 790.81137181 83.75956329 795.2265625 79.01953125 C797.42035845 76.65485308 799.55225213 74.24136151 801.67333984 71.8112793 C802.2980014 71.09602585 802.92266296 70.3807724 803.56625366 69.6438446 C804.2759581 68.83014153 804.2759581 68.83014153 805 68 C775.98429789 67.71951527 746.96879932 67.50798813 717.95201397 67.37825394 C715.2683825 67.36601606 712.58475236 67.3535202 709.90112305 67.34082031 C709.23411075 67.33767259 708.56709846 67.33452486 707.87987367 67.33128175 C697.09426286 67.27913387 686.30942334 67.18455882 675.52426936 67.07416645 C664.44900359 66.9617542 653.37416221 66.89615219 642.2983554 66.87093806 C636.08044042 66.85531049 629.8642718 66.81866193 623.64691734 66.73123932 C617.78999971 66.64955498 611.93554099 66.62470539 606.07810783 66.64270782 C603.93305324 66.63941652 601.78791329 66.6156766 599.64335251 66.5695343 C587.80355551 65.93503755 587.80355551 65.93503755 577.37317848 70.56752777 C574.49918185 73.4282881 572.25166143 76.63026869 570 80 C568.49485438 81.86692386 566.97632531 83.723238 565.4375 85.5625 C564.71433594 86.46097656 563.99117187 87.35945313 563.24609375 88.28515625 C560.9116941 91.10673495 558.48009402 93.80590712 556 96.5 C552.70668301 100.07792463 549.55348679 103.71539666 546.5 107.5 C542.66164586 112.25739668 538.60377641 116.75783918 534.46484375 121.25390625 C532.07292703 123.91875166 529.80745116 126.64831825 527.5625 129.4375 C523.90493736 133.97236161 520.05382973 138.25536183 516.08837891 142.51708984 C512.28601193 146.62779276 508.75729408 150.92275584 505.24609375 155.28515625 C502.9116941 158.10673495 500.48009402 160.80590712 498 163.5 C493.87849602 167.97878606 490.00570363 172.60478783 486.18359375 177.33984375 C482.90659887 181.3320325 479.46764396 185.17330843 476 189 C467.90665075 180.99398905 460.38153415 172.58008789 453.24609375 163.71484375 C450.9116941 160.89326505 448.48009402 158.19409288 446 155.5 C442.72581577 151.94329756 439.59357567 148.32838189 436.5625 144.5625 C433.34056899 140.56776014 429.99344505 136.75445651 426.5 133 C422.21044887 128.38995664 418.19589328 123.62217044 414.24609375 118.71484375 C411.9116941 115.89326505 409.48009402 113.19409288 407 110.5 C402.90648909 106.05272888 399.07557501 101.45282537 395.28125 96.75 C392.14804426 92.97298486 388.81987 89.39021766 385.49609375 85.78125 C382.16258934 82.06692271 379.02937726 78.2072805 375.91015625 74.3125 C374.10189882 72.03384513 374.10189882 72.03384513 372.24609375 70.3125 C371 69 371 69 371 67 C296.75 67 222.5 67 146 67 C152.84127711 75.43549905 152.84127711 75.43549905 160 83.5 C163.27418423 87.05670244 166.40642433 90.67161811 169.4375 94.4375 C173.09571015 98.97316443 176.94742965 103.2570117 180.91381836 107.51928711 C184.69490558 111.60661006 188.19689966 115.88043244 191.6875 120.21875 C194.1997101 123.24019188 196.82400827 126.12441773 199.5 129 C203.76918152 133.58760113 207.75758517 138.33442728 211.6875 143.21875 C214.1997101 146.24019188 216.82400827 149.12441773 219.5 152 C223.76918152 156.58760113 227.75758517 161.33442728 231.6875 166.21875 C234.1997101 169.24019188 236.82400827 172.12441773 239.5 175 C243.76918152 179.58760113 247.75758517 184.33442728 251.6875 189.21875 C254.1997101 192.24019188 256.82400827 195.12441773 259.5 198 C263.76918152 202.58760113 267.75758517 207.33442728 271.6875 212.21875 C274.1997101 215.24019188 276.82400827 218.12441773 279.5 221 C283.76918152 225.58760113 287.75758517 230.33442728 291.6875 235.21875 C294.1997101 238.24019188 296.82400827 241.12441773 299.5 244 C303.76918152 248.58760113 307.75758517 253.33442728 311.6875 258.21875 C314.1997101 261.24019188 316.82400827 264.12441773 319.5 267 C323.76918152 271.58760113 327.75758517 276.33442728 331.6875 281.21875 C334.19971256 284.24019484 336.82404088 287.12438383 339.5 290 C343.79880308 294.62043157 347.83320871 299.39255118 351.78515625 304.31640625 C354.8331612 308.00949161 358.07613662 311.50869297 361.34765625 315.00390625 C363 317 363 317 363 319 C362.34 319 361.68 319 361 319 C360.66162109 319.81791016 360.66162109 319.81791016 360.31640625 320.65234375 C358.60856854 323.69807213 356.32946446 326.05321848 353.9375 328.5625 C350.31013008 332.43675897 346.82453427 336.35785875 343.5 340.5 C339.86500611 345.01777813 336.0328971 349.27818516 332.0859375 353.51953125 C329.09558642 356.75211747 326.26213671 360.06705866 323.5 363.5 C320.30068062 367.47629694 316.9741296 371.26666073 313.5 375 C309.19000895 379.63245661 305.14938604 384.42122516 301.1796875 389.3515625 C299.02242601 391.97275119 296.78689 394.49154281 294.5 397 C291.38541332 400.41739372 288.4081338 403.9052235 285.5 407.5 C281.88850866 411.96420457 278.11339306 416.23002114 274.24609375 420.47265625 C271.93812402 423.06962393 269.74444137 425.73404013 267.5625 428.4375 C263.70174863 433.211403 259.62562925 437.73388428 255.46875 442.25 C253.05621896 444.93737634 250.7674379 447.68965444 248.5 450.5 C244.66164586 455.25739668 240.60377641 459.75783918 236.46484375 464.25390625 C234.07292703 466.91875166 231.80745116 469.64831825 229.5625 472.4375 C225.90493736 476.97236161 222.05382973 481.25536183 218.08837891 485.51708984 C214.28601193 489.62779276 210.75729408 493.92275584 207.24609375 498.28515625 C204.11832821 502.06567286 200.78726117 505.64480875 197.46484375 509.25390625 C195.07292703 511.91875166 192.80745116 514.64831825 190.5625 517.4375 C186.90493736 521.97236161 183.05382973 526.25536183 179.08837891 530.51708984 C175.29168818 534.62165622 171.76777289 538.90980909 168.26171875 543.265625 C165.09204319 547.09770253 161.7373572 550.74608969 158.359375 554.39453125 C155.90638982 556.97883496 155.90638982 556.97883496 153.89863586 560.12026978 C152.35438861 561.96351937 151.45091032 562.86927122 149.12615013 563.54327011 C146.81786402 563.7386299 144.57831639 563.7425066 142.26245117 563.68115234 C141.39365326 563.6820285 140.52485535 563.68290466 139.62973022 563.68380737 C136.76655222 563.67963703 133.90573586 563.63301259 131.04296875 563.5859375 C129.05472595 563.57474336 127.06646657 563.5662042 125.07820129 563.56021118 C119.85155337 563.53733008 114.62590994 563.47841257 109.3996582 563.4119873 C104.06410307 563.35054955 98.72838522 563.32319295 93.39257812 563.29296875 C82.92794469 563.22866903 72.46405596 563.12629782 62 563 C64.65850687 558.94187464 67.36404324 555.35002805 70.6875 551.8125 C74.07002176 548.15304664 77.31634733 544.44710008 80.4375 540.5625 C84.09571015 536.02683557 87.94742965 531.7429883 91.91381836 527.48071289 C94.90427 524.24806025 97.73779007 520.93303234 100.5 517.5 C104.13499389 512.98222187 107.9671029 508.72181484 111.9140625 504.48046875 C114.90441358 501.24788253 117.73786329 497.93294134 120.5 494.5 C124.13499389 489.98222187 127.9671029 485.72181484 131.9140625 481.48046875 C134.90441358 478.24788253 137.73786329 474.93294134 140.5 471.5 C144.13499389 466.98222187 147.9671029 462.72181484 151.9140625 458.48046875 C154.90441358 455.24788253 157.73786329 451.93294134 160.5 448.5 C164.13499389 443.98222187 167.9671029 439.72181484 171.9140625 435.48046875 C174.90441358 432.24788253 177.73786329 428.93294134 180.5 425.5 C184.13499389 420.98222187 187.9671029 416.72181484 191.9140625 412.48046875 C194.90441358 409.24788253 197.73786329 405.93294134 200.5 402.5 C204.1356405 397.98141824 207.96836402 393.72016671 211.91625977 389.47827148 C214.88715628 386.2670095 217.69961077 382.97372185 220.4375 379.5625 C224.28174639 374.78298078 228.37089045 370.30679656 232.56054688 365.83398438 C235.65765465 362.50862723 238.59614376 359.11289193 241.4375 355.5625 C244.94644601 351.18746205 248.65857106 347.079931 252.5 343 C257.95307199 337.20522115 263.05801391 331.24090646 268 325 C268.76183594 324.17628906 269.52367187 323.35257812 270.30859375 322.50390625 C272.22620901 320.15934916 272.22620901 320.15934916 272.03125 317.5078125 C270.70782205 314.28947634 268.91879891 312.37591862 266.5 309.875 C265.57967131 308.90457643 264.66175466 307.93186042 263.74609375 306.95703125 C263.05169189 306.21960693 263.05169189 306.21960693 262.34326172 305.46728516 C260.31198512 303.24846066 258.44162972 300.91056263 256.5625 298.5625 C252.90428985 294.02683557 249.05257035 289.7429883 245.08618164 285.48071289 C241.30509442 281.39338994 237.80310034 277.11956756 234.3125 272.78125 C231.8002899 269.75980812 229.17599173 266.87558227 226.5 264 C222.23081848 259.41239887 218.24241483 254.66557272 214.3125 249.78125 C211.80028867 246.75980664 209.17597543 243.87559922 206.5 241 C202.2104224 236.38998361 198.19589103 231.62216764 194.24609375 226.71484375 C191.9116941 223.89326505 189.48009402 221.19409288 187 218.5 C183.72581577 214.94329756 180.59357567 211.32838189 177.5625 207.5625 C174.34056899 203.56776014 170.99344505 199.75445651 167.5 196 C163.21044887 191.38995664 159.19589328 186.62217044 155.24609375 181.71484375 C152.9116941 178.89326505 150.48009402 176.19409288 148 173.5 C144.72581577 169.94329756 141.59357567 166.32838189 138.5625 162.5625 C135.34056899 158.56776014 131.99344505 154.75445651 128.5 151 C124.21044887 146.38995664 120.19589328 141.62217044 116.24609375 136.71484375 C113.9116941 133.89326505 111.48009402 131.19409288 109 128.5 C104.86591509 124.00754241 100.98269788 119.36628895 97.1484375 114.6171875 C95.15403704 112.18764512 93.10293019 109.83566555 91 107.5 C88.08580641 104.26264831 85.30264988 100.94850843 82.5625 97.5625 C78.9267253 93.07858575 75.13042762 88.78839293 71.2421875 84.5234375 C68.95484096 81.94917642 66.78451729 79.30710511 64.625 76.625 C60.94298465 72.07059077 57.07099643 67.76252435 53.08422852 63.47875977 C50.1131325 60.26736593 47.30053412 56.97390237 44.5625 53.5625 C41.19653735 49.37762693 37.66823983 45.41685602 34 41.5 C29.54252537 36.74041852 25.36392035 31.83854566 21.28125 26.75 C18.76288481 23.71416252 16.12424809 20.82352214 13.4375 17.9375 C0 3.46508252 0 3.46508252 0 0 Z " fill="#AACB46" transform="translate(103,173)"/>
<path d="M0 0 C0.81783463 0.01797638 1.63566925 0.03595276 2.47828674 0.05447388 C3.34693863 0.05374374 4.21559052 0.05301361 5.11056519 0.05226135 C7.97889368 0.05574205 10.84559389 0.09462544 13.71363831 0.13381958 C15.70331434 0.143146 17.69300186 0.15026292 19.68269348 0.15525818 C24.91743213 0.17434136 30.15147619 0.2234539 35.38594055 0.27877808 C40.72815047 0.32994188 46.07047271 0.35276611 51.41285706 0.37796021 C61.89363084 0.43157105 72.3738893 0.51690014 82.85426331 0.62210083 C80.19575644 4.68022619 77.49022007 8.27207278 74.16676331 11.80960083 C70.78424155 15.46905419 67.53791597 19.17500075 64.41676331 23.05960083 C60.75920067 27.59446244 56.90809303 31.87746266 52.94264221 36.13919067 C49.14027524 40.24989359 45.61155739 44.54485667 42.10035706 48.90725708 C38.9714151 52.68919562 35.63908886 56.26965953 32.31520081 59.87991333 C29.94386436 62.52225966 27.70173333 65.2290425 25.47926331 67.99710083 C21.61272146 72.79270573 17.50574347 77.2908875 13.2983551 81.78347778 C9.37533606 85.99621206 5.73522611 90.38614536 2.13160706 94.87600708 C-0.36400138 97.88529135 -2.98338812 100.76148737 -5.64573669 103.62210083 C-9.11992913 107.35537338 -12.4464238 111.14581194 -15.64573669 115.12210083 C-19.28073059 119.63987896 -23.11283959 123.90028599 -27.05979919 128.14163208 C-30.05015027 131.3742183 -32.88359999 134.68915949 -35.64573669 138.12210083 C-39.28073059 142.63987896 -43.11283959 146.90028599 -47.05979919 151.14163208 C-50.05015027 154.3742183 -52.88359999 157.68915949 -55.64573669 161.12210083 C-59.28137719 165.64068259 -63.11410071 169.90193412 -67.06199646 174.14382935 C-70.03289298 177.35509133 -72.84534746 180.64837898 -75.58323669 184.05960083 C-79.94431267 189.47767008 -84.62294521 194.54421082 -89.36448669 199.62600708 C-92.1038984 202.56409939 -94.75439268 205.57041128 -97.38011169 208.61038208 C-99.55484239 211.0882279 -101.78912071 213.50788958 -104.02073669 215.93460083 C-108.1561507 220.46416171 -112.0616431 225.12929919 -115.89573669 229.91506958 C-118.92122247 233.55510715 -122.18434013 236.95045101 -125.49339294 240.33303833 C-127.27599855 242.49961481 -127.27599855 242.49961481 -127.73167419 245.02835083 C-126.86433599 248.86776795 -124.41078659 251.05427525 -121.70823669 253.74710083 C-120.59503159 254.90091712 -119.48437981 256.05720195 -118.37620544 257.21585083 C-117.82497009 257.78948364 -117.27373474 258.36311646 -116.70579529 258.95413208 C-114.52134612 261.28968086 -112.51831788 263.75102093 -110.52073669 266.24710083 C-107.51210551 269.99431296 -104.40080752 273.58659313 -101.14573669 277.12210083 C-97.87155246 280.67880327 -94.73931236 284.29371894 -91.70823669 288.05960083 C-88.05002655 292.59526526 -84.19830704 296.87911253 -80.23191833 301.14138794 C-76.45083111 305.22871089 -72.94883703 309.50253327 -69.45823669 313.84085083 C-66.94602659 316.86229271 -64.32172843 319.74651856 -61.64573669 322.62210083 C-57.37655518 327.20970196 -53.38815152 331.95652811 -49.45823669 336.84085083 C-46.94602536 339.86229419 -44.32171212 342.74650161 -41.64573669 345.62210083 C-37.35615909 350.23211722 -33.34162772 354.99993319 -29.39183044 359.90725708 C-27.0574308 362.72883578 -24.62583071 365.42800795 -22.14573669 368.12210083 C-18.05222578 372.56937195 -14.22131171 377.16927546 -10.42698669 381.87210083 C-7.28379412 385.6611549 -3.94415075 389.25479435 -0.61058044 392.87600708 C1.78133628 395.54085249 4.04681214 398.27041908 6.29176331 401.05960083 C9.51369432 405.05434069 12.86081826 408.86764432 16.35426331 412.62210083 C20.64381443 417.23214419 24.65837003 421.99993039 28.60816956 426.90725708 C30.9425692 429.72883578 33.37416929 432.42800795 35.85426331 435.12210083 C39.94777422 439.56937195 43.77868829 444.16927546 47.57301331 448.87210083 C49.92145299 451.70309661 52.36336233 454.41593681 54.85426331 457.12210083 C58.86956077 461.48896812 62.64564288 465.9902191 66.37379456 470.60256958 C72.89655922 478.54287995 79.69126015 486.27021449 86.60426331 493.87210083 C89.59289583 497.16503049 92.43809936 500.53526852 95.22926331 503.99710083 C98.90998177 508.5499059 102.78074979 512.85627494 106.76564026 517.13894653 C110.56811345 521.2497104 114.0968963 525.54476606 117.60816956 529.90725708 C119.9425692 532.72883578 122.37416929 535.42800795 124.85426331 538.12210083 C128.99681701 542.62431811 132.89757343 547.27045431 136.73707581 552.03225708 C139.28784864 555.15248289 141.94373751 558.16596106 144.63941956 561.16116333 C145.85426331 562.62210083 145.85426331 562.62210083 145.85426331 563.62210083 C13.52426331 563.62210083 -118.80573669 563.62210083 -255.14573669 563.62210083 C-252.89577541 556.87221698 -252.89577541 556.87221698 -251.40916443 553.5864563 C-251.07799118 552.85063324 -250.74681793 552.11481018 -250.40560913 551.35668945 C-250.05043716 550.57544708 -249.6952652 549.79420471 -249.32933044 548.98928833 C-248.95397659 548.15736969 -248.57862274 547.32545105 -248.19189453 546.46832275 C-246.99175193 543.80999905 -245.78759745 541.15351574 -244.58323669 538.49710083 C-243.80106338 536.76675513 -243.01916012 535.03628733 -242.23753357 533.30569458 C-241.06576454 530.71157076 -239.8933902 528.11773151 -238.71882629 525.52487183 C-236.662734 520.98566293 -234.61593178 516.44256732 -232.58372498 511.89260864 C-232.17026321 510.9683609 -231.75680145 510.04411316 -231.33081055 509.09185791 C-230.5365526 507.31525591 -229.74411518 505.53783862 -228.95370483 503.75952148 C-228.42239708 502.57218918 -228.42239708 502.57218918 -227.88035583 501.36087036 C-227.56860916 500.66108063 -227.25686249 499.96129089 -226.93566895 499.24029541 C-226.14573669 497.62210083 -226.14573669 497.62210083 -225.14573669 496.62210083 C-222.26317067 496.52415543 -219.40456087 496.49217892 -216.52157593 496.50184631 C-215.1482207 496.50056468 -215.1482207 496.50056468 -213.74712092 496.49925715 C-210.65463164 496.49759954 -207.56219565 496.50312829 -204.4697113 496.50857544 C-202.26269533 496.50885728 -200.05567925 496.50869965 -197.84866333 496.50813293 C-191.83650945 496.50784482 -185.82437533 496.51374372 -179.81222606 496.52070689 C-173.53680568 496.5269382 -167.26138491 496.52754405 -160.98596191 496.5287323 C-150.44636192 496.53149199 -139.90676845 496.5377475 -129.36717224 496.54666138 C-118.50942522 496.55583481 -107.65168017 496.56291598 -96.79393005 496.56716919 C-95.79069362 496.56756327 -95.79069362 496.56756327 -94.76718979 496.56796532 C-91.41202848 496.56927032 -88.05686715 496.57053404 -84.70170581 496.57177722 C-56.84971103 496.58224311 -28.99772437 496.59984383 -1.14573669 496.62210083 C-2.55040373 494.89164802 -3.95704501 493.16279767 -5.36448669 491.43460083 C-6.14759216 490.47167114 -6.93069763 489.50874146 -7.73753357 488.51663208 C-9.97916116 485.82231571 -12.28275657 483.21004791 -14.64573669 480.62210083 C-17.70327861 477.26883811 -20.61661421 473.84754883 -23.45823669 470.30960083 C-27.34829601 465.49624646 -31.47445504 460.97448633 -35.70140076 456.46096802 C-39.62452263 452.24816942 -43.26470084 447.85814731 -46.86839294 443.36819458 C-49.36400138 440.35891031 -51.98338812 437.48271429 -54.64573669 434.62210083 C-58.91494448 430.03452644 -62.90332408 425.28767079 -66.83323669 420.40335083 C-69.3454468 417.38190895 -71.96974496 414.4976831 -74.64573669 411.62210083 C-78.91491821 407.0344997 -82.90332186 402.28767355 -86.83323669 397.40335083 C-89.3454468 394.38190895 -91.96974496 391.4976831 -94.64573669 388.62210083 C-98.91491821 384.0344997 -102.90332186 379.28767355 -106.83323669 374.40335083 C-109.3454468 371.38190895 -111.96974496 368.4976831 -114.64573669 365.62210083 C-118.91491821 361.0344997 -122.90332186 356.28767355 -126.83323669 351.40335083 C-129.3454468 348.38190895 -131.96974496 345.4976831 -134.64573669 342.62210083 C-138.91491821 338.0344997 -142.90332186 333.28767355 -146.83323669 328.40335083 C-149.34544803 325.38190747 -151.96976127 322.49770005 -154.64573669 319.62210083 C-158.9353143 315.01208444 -162.94984567 310.24426847 -166.89964294 305.33694458 C-169.23404259 302.51536588 -171.66564268 299.81619371 -174.14573669 297.12210083 C-177.41992093 293.56539839 -180.55216102 289.95048272 -183.58323669 286.18460083 C-186.80516771 282.18986097 -190.15229165 278.37655734 -193.64573669 274.62210083 C-197.92410947 270.024071 -201.93241265 265.27294674 -205.86448669 260.37210083 C-209.17751131 256.37831773 -212.71616729 252.6120702 -216.27464294 248.83694458 C-218.14573669 246.62210083 -218.14573669 246.62210083 -218.14573669 244.62210083 C-216.5170339 242.91831599 -214.84293349 241.25766758 -213.14573669 239.62210083 C-208.13878692 234.30014429 -203.29439224 228.87406848 -198.70823669 223.18460083 C-195.05067405 218.64973922 -191.19956642 214.36673901 -187.2341156 210.10501099 C-183.43174863 205.99430807 -179.90303077 201.69934499 -176.39183044 197.33694458 C-174.0574308 194.51536588 -171.62583071 191.81619371 -169.14573669 189.12210083 C-165.03194761 184.65224963 -161.17486373 180.0316519 -157.36058044 175.30569458 C-154.48092783 171.81659167 -151.43879794 168.49213162 -148.39183044 165.14944458 C-146.08386072 162.5524769 -143.89017807 159.8880607 -141.70823669 157.18460083 C-137.84748532 152.41069783 -133.77136594 147.88821655 -129.61448669 143.37210083 C-127.20195566 140.68472449 -124.91317459 137.93244639 -122.64573669 135.12210083 C-118.80854638 130.36614664 -114.75188569 125.86705282 -110.61448669 121.37210083 C-108.20195566 118.68472449 -105.91317459 115.93244639 -103.64573669 113.12210083 C-99.80738255 108.36470415 -95.74951311 103.86426165 -91.61058044 99.36819458 C-89.21866372 96.70334917 -86.95318786 93.97378258 -84.70823669 91.18460083 C-81.05067405 86.64973922 -77.19956642 82.36673901 -73.2341156 78.10501099 C-69.43174863 73.99430807 -65.90303077 69.69934499 -62.39183044 65.33694458 C-59.2640649 61.55642797 -55.93299786 57.97729208 -52.61058044 54.36819458 C-50.21866372 51.70334917 -47.95318786 48.97378258 -45.70823669 46.18460083 C-42.05002655 41.6489364 -38.19830704 37.36508913 -34.23191833 33.10281372 C-30.45774211 29.0229615 -26.96134488 24.75772182 -23.47776794 20.42678833 C-20.01159338 16.25808927 -16.32595757 12.31001409 -12.62620544 8.34866333 C-10.1202446 5.7647211 -10.1202446 5.7647211 -8.52970886 2.98716736 C-5.69599111 0.17592187 -3.91534505 0.03567459 0 0 Z " fill="#AACB46" transform="translate(1032.145736694336,287.3778991699219)"/>
<path d="M0 0 C132.66 0 265.32 0 402 0 C398.40839211 4.78881051 395.20529452 9.02818512 391.1875 13.3125 C387.84825689 16.93084403 384.6476694 20.60038967 381.5625 24.4375 C377.90428985 28.97316443 374.05257035 33.2570117 370.08618164 37.51928711 C367.09573 40.75193975 364.26220993 44.06696766 361.5 47.5 C357.86500611 52.01777813 354.0328971 56.27818516 350.0859375 60.51953125 C347.09558642 63.75211747 344.26213671 67.06705866 341.5 70.5 C337.86500611 75.01777813 334.0328971 79.27818516 330.0859375 83.51953125 C327.09558642 86.75211747 324.26213671 90.06705866 321.5 93.5 C317.86500611 98.01777813 314.0328971 102.27818516 310.0859375 106.51953125 C307.09558642 109.75211747 304.26213671 113.06705866 301.5 116.5 C297.86500611 121.01777813 294.0328971 125.27818516 290.0859375 129.51953125 C287.09558642 132.75211747 284.26213671 136.06705866 281.5 139.5 C277.86500611 144.01777813 274.0328971 148.27818516 270.0859375 152.51953125 C267.09558642 155.75211747 264.26213671 159.06705866 261.5 162.5 C257.86500611 167.01777813 254.0328971 171.27818516 250.0859375 175.51953125 C247.09558642 178.75211747 244.26213671 182.06705866 241.5 185.5 C237.86500611 190.01777813 234.0328971 194.27818516 230.0859375 198.51953125 C227.09558642 201.75211747 224.26213671 205.06705866 221.5 208.5 C217.86500611 213.01777813 214.0328971 217.27818516 210.0859375 221.51953125 C207.09558642 224.75211747 204.26213671 228.06705866 201.5 231.5 C198.30068278 235.47629426 194.97415055 239.26668298 191.5 243 C187.2104224 247.61001639 183.19589103 252.37783236 179.24609375 257.28515625 C176.11832821 261.06567286 172.78726117 264.64480875 169.46484375 268.25390625 C167.07292703 270.91875166 164.80745116 273.64831825 162.5625 276.4375 C158.90428985 280.97316443 155.05257035 285.2570117 151.08618164 289.51928711 C148.09573 292.75193975 145.26220993 296.06696766 142.5 299.5 C138.86500611 304.01777813 135.0328971 308.27818516 131.0859375 312.51953125 C128.09558642 315.75211747 125.26213671 319.06705866 122.5 322.5 C118.86500611 327.01777813 115.0328971 331.27818516 111.0859375 335.51953125 C108.09558642 338.75211747 105.26213671 342.06705866 102.5 345.5 C98.8643595 350.01858176 95.03163598 354.27983329 91.08374023 358.52172852 C88.11284372 361.7329905 85.30038923 365.02627815 82.5625 368.4375 C78.71954521 373.21541338 74.63168671 377.68994984 70.44384766 382.16162109 C66.52415468 386.37082976 62.88733712 390.75743963 59.28515625 395.2421875 C55.85652408 399.37998974 52.20107087 403.29671107 48.55078125 407.23828125 C44.32666728 411.81170939 40.26567752 416.51670681 36.22265625 421.25 C35.19012862 422.45835423 34.15757589 423.66668701 33.125 424.875 C32.61098633 425.47715332 32.09697266 426.07930664 31.56738281 426.69970703 C27.67452591 431.24710423 23.69498464 435.70131401 19.64453125 440.109375 C17.94218348 441.90764735 17.94218348 441.90764735 17 444 C16.34 444 15.68 444 15 444 C14.76410156 444.55558594 14.52820313 445.11117188 14.28515625 445.68359375 C12.6872248 448.56375591 10.694995 450.66369076 8.4375 453.0625 C5.0046517 456.75363459 1.72061908 460.50410259 -1.4375 464.4375 C-5.09506264 468.97236161 -8.94617027 473.25536183 -12.91162109 477.51708984 C-16.71398807 481.62779276 -20.24270592 485.92275584 -23.75390625 490.28515625 C-26.88167179 494.06567286 -30.21273883 497.64480875 -33.53515625 501.25390625 C-35.92707297 503.91875166 -38.19254884 506.64831825 -40.4375 509.4375 C-44.09571015 513.97316443 -47.94742965 518.2570117 -51.91381836 522.51928711 C-54.90427 525.75193975 -57.73779007 529.06696766 -60.5 532.5 C-64.12899433 537.01032152 -67.95157725 541.26712847 -71.89648438 545.49755859 C-75.85897716 549.77442404 -79.51432279 554.24059325 -83.125 558.8203125 C-85 561 -85 561 -88 563 C-90.80937758 563.1844298 -93.51811695 563.25221089 -96.3269043 563.22705078 C-97.60040237 563.22748886 -97.60040237 563.22748886 -98.89962769 563.22793579 C-101.70792841 563.22654163 -104.51596433 563.21097636 -107.32421875 563.1953125 C-109.27049108 563.19158268 -111.21676528 563.18873556 -113.16304016 563.18673706 C-118.28737567 563.17909819 -123.41159793 563.15944748 -128.53588867 563.1373291 C-133.76414457 563.11687617 -138.99241876 563.10773652 -144.22070312 563.09765625 C-154.48051852 563.07620186 -164.74024985 563.04206282 -175 563 C-174.06221798 561.73271135 -173.12205098 560.46718739 -172.1809082 559.20239258 C-171.65761429 558.4974617 -171.13432037 557.79253082 -170.59516907 557.0662384 C-168.30310577 554.09730595 -165.77481644 551.39804235 -163.1875 548.6875 C-158.65950511 543.86841472 -154.41809643 538.90518705 -150.27734375 533.74609375 C-147.78173531 530.73680948 -145.16234857 527.86061346 -142.5 525 C-139.02580757 521.26672745 -135.6993129 517.47628889 -132.5 513.5 C-129.30068278 509.52370574 -125.97415055 505.73331702 -122.5 502 C-118.21364389 497.39344575 -114.20247989 492.62872727 -110.25390625 487.7265625 C-107.07287251 483.87844889 -103.70440386 480.21568518 -100.328125 476.5390625 C-94.67136183 470.3697738 -89.26428807 463.9818325 -83.82250977 457.62353516 C-77.36859364 450.08650689 -70.85930745 442.59757612 -64.35449219 435.10449219 C-58.05358235 427.84515518 -51.76829699 420.57336478 -45.51928711 413.26928711 C-41.31886876 408.36317091 -37.08921547 403.48282543 -32.85546875 398.60546875 C-29.22167372 394.41663104 -25.60498792 390.2136454 -22 386 C-16.24263153 379.27185179 -10.44578128 372.5784632 -4.64111328 365.89111328 C-1.92578783 362.76214706 0.7869838 359.63096844 3.5 356.5 C4.58332094 355.24998926 5.66665428 353.99998926 6.75 352.75 C7.28625 352.13125 7.8225 351.5125 8.375 350.875 C26.25 330.25 26.25 330.25 27.87524414 328.37475586 C28.95781325 327.12561263 30.04033284 325.87642648 31.12280273 324.62719727 C33.84242277 321.48873365 36.56291804 318.35103681 39.28515625 315.21484375 C40.37767098 313.95578714 41.47011913 312.69667275 42.5625 311.4375 C43.09842773 310.81979736 43.63435547 310.20209473 44.18652344 309.56567383 C48.39932158 304.70489992 52.57878206 299.81619543 56.75537109 294.92431641 C59.68262923 291.50609717 62.65809681 288.14116832 65.6875 284.8125 C68.69814479 281.4991692 71.56565178 278.11058071 74.375 274.625 C78.05571847 270.07219493 81.92648648 265.76582589 85.91137695 261.4831543 C89.71385014 257.37239043 93.24263299 253.07733477 96.75390625 248.71484375 C99.88167179 244.93432714 103.21273883 241.35519125 106.53515625 237.74609375 C108.92707297 235.08124834 111.19254884 232.35168175 113.4375 229.5625 C117.09571015 225.02683557 120.94742965 220.7429883 124.91381836 216.48071289 C127.90427 213.24806025 130.73779007 209.93303234 133.5 206.5 C136.69931722 202.52370574 140.02584945 198.73331702 143.5 195 C147.7895776 190.38998361 151.80410897 185.62216764 155.75390625 180.71484375 C158.88167179 176.93432714 162.21273883 173.35519125 165.53515625 169.74609375 C167.92707297 167.08124834 170.19254884 164.35168175 172.4375 161.5625 C176.09571015 157.02683557 179.94742965 152.7429883 183.91381836 148.48071289 C186.90427 145.24806025 189.73779007 141.93303234 192.5 138.5 C195.69931722 134.52370574 199.02584945 130.73331702 202.5 127 C206.7895776 122.38998361 210.80410897 117.62216764 214.75390625 112.71484375 C217.88167179 108.93432714 221.21273883 105.35519125 224.53515625 101.74609375 C226.92707297 99.08124834 229.19254884 96.35168175 231.4375 93.5625 C235.50838106 88.51893055 239.81137181 83.75956329 244.2265625 79.01953125 C247.54779586 75.40359691 250.76691189 71.69495784 254 68 C143.12 67.505 143.12 67.505 30 67 C0 1.70588235 0 1.70588235 0 0 Z " fill="#C0DB6E" transform="translate(654,173)"/>
<path d="M0 0 C1.71206623 0.0018684 3.42413299 0.00329031 5.13619995 0.00428772 C9.611018 0.00807965 14.08580285 0.01788101 18.56060791 0.0289917 C23.13935904 0.03927782 27.71811561 0.04380067 32.296875 0.04882812 C41.25782697 0.05950672 50.21875446 0.07654252 59.1796875 0.09765625 C57.83485605 2.86796042 56.49035741 5.09917307 54.45703125 7.41796875 C53.92303711 8.0305957 53.38904297 8.64322266 52.83886719 9.27441406 C52.27071289 9.91733398 51.70255859 10.56025391 51.1171875 11.22265625 C50.53227539 11.89135742 49.94736328 12.56005859 49.34472656 13.24902344 C46.07374242 16.9798494 42.7658467 20.67492877 39.4296875 24.34765625 C36.44105497 27.64058591 33.59585145 31.01082394 30.8046875 34.47265625 C27.12332061 39.02626337 23.25194277 43.33348141 19.26611328 47.61669922 C16.27556109 50.84941829 13.44197065 54.16453291 10.6796875 57.59765625 C7.04469361 62.11543438 3.2125846 66.37584141 -0.734375 70.6171875 C-3.72472608 73.84977372 -6.55817579 77.16471491 -9.3203125 80.59765625 C-12.51962972 84.57395051 -15.84616195 88.36433923 -19.3203125 92.09765625 C-23.6098901 96.70767264 -27.62442147 101.47548861 -31.57421875 106.3828125 C-34.70198429 110.16332911 -38.03305133 113.742465 -41.35546875 117.3515625 C-43.74738547 120.01640791 -46.01286134 122.7459745 -48.2578125 125.53515625 C-51.47974567 129.52989879 -54.82688861 133.34317734 -58.3203125 137.09765625 C-62.63027688 141.73014005 -66.67092418 146.51887858 -70.640625 151.44921875 C-73.5062393 154.93109419 -76.54070462 158.24251543 -79.578125 161.57421875 C-81.86547154 164.14847983 -84.03579521 166.79055114 -86.1953125 169.47265625 C-89.87538259 174.02465932 -93.74554134 178.33017873 -97.72949219 182.61230469 C-101.55325926 186.74646853 -105.10873278 191.06263375 -108.640625 195.44921875 C-110.79788649 198.07040744 -113.0334225 200.58919906 -115.3203125 203.09765625 C-118.41586446 206.49364307 -121.37182457 209.95937156 -124.2578125 213.53515625 C-128.11972925 218.31050027 -132.19705474 222.8343331 -136.35546875 227.3515625 C-138.74738547 230.01640791 -141.01286134 232.7459745 -143.2578125 235.53515625 C-146.91602265 240.07082068 -150.76774215 244.35466795 -154.73413086 248.61694336 C-157.7245825 251.849596 -160.55810257 255.16462391 -163.3203125 258.59765625 C-166.51962972 262.57395051 -169.84616195 266.36433923 -173.3203125 270.09765625 C-177.6098901 274.70767264 -181.62442147 279.47548861 -185.57421875 284.3828125 C-188.70198429 288.16332911 -192.03305133 291.742465 -195.35546875 295.3515625 C-197.74738547 298.01640791 -200.01286134 300.7459745 -202.2578125 303.53515625 C-205.91537514 308.07001786 -209.76648277 312.35301808 -213.73193359 316.61474609 C-217.53430057 320.72544901 -221.06301842 325.02041209 -224.57421875 329.3828125 C-227.70198429 333.16332911 -231.03305133 336.742465 -234.35546875 340.3515625 C-236.74738547 343.01640791 -239.01286134 345.7459745 -241.2578125 348.53515625 C-244.91602265 353.07082068 -248.76774215 357.35466795 -252.73413086 361.61694336 C-255.7245825 364.849596 -258.55810257 368.16462391 -261.3203125 371.59765625 C-264.51962972 375.57395051 -267.84616195 379.36433923 -271.3203125 383.09765625 C-275.6098901 387.70767264 -279.62442147 392.47548861 -283.57421875 397.3828125 C-286.70198429 401.16332911 -290.03305133 404.742465 -293.35546875 408.3515625 C-295.74738547 411.01640791 -298.01286134 413.7459745 -300.2578125 416.53515625 C-303.91602265 421.07082068 -307.76774215 425.35466795 -311.73413086 429.61694336 C-314.7245825 432.849596 -317.55810257 436.16462391 -320.3203125 439.59765625 C-323.51962972 443.57395051 -326.84616195 447.36433923 -330.3203125 451.09765625 C-334.6098901 455.70767264 -338.62442147 460.47548861 -342.57421875 465.3828125 C-345.69436762 469.15412288 -349.01646591 472.7250514 -352.33203125 476.32421875 C-355.60175103 479.96864739 -358.66728135 483.75894918 -361.71484375 487.58984375 C-363.93040857 490.22879109 -366.38384266 492.66118641 -368.8203125 495.09765625 C-257.9403125 495.59265625 -257.9403125 495.59265625 -144.8203125 496.09765625 C-136.8203125 512.09765625 -136.8203125 512.09765625 -133.8203125 519.09765625 C-132.84996935 521.28994348 -131.87459199 523.48000849 -130.89453125 525.66796875 C-130.62445755 526.27091766 -130.35438385 526.87386658 -130.0761261 527.49508667 C-129.50749881 528.76410546 -128.93858145 530.03299431 -128.36938477 531.30175781 C-127.51939171 533.19684008 -126.67076689 535.09253067 -125.82226562 536.98828125 C-125.26316726 538.23574272 -124.70392312 539.48313887 -124.14453125 540.73046875 C-123.73362747 541.6475058 -123.73362747 541.6475058 -123.31442261 542.58306885 C-121.9205876 545.68450703 -120.50894224 548.77605958 -119.06494141 551.85449219 C-118.51628418 553.0252832 -117.96762695 554.19607422 -117.40234375 555.40234375 C-116.90581299 556.45147949 -116.40928223 557.50061523 -115.89770508 558.58154297 C-114.8203125 561.09765625 -114.8203125 561.09765625 -114.8203125 563.09765625 C-247.4803125 563.09765625 -380.1403125 563.09765625 -516.8203125 563.09765625 C-513.0803272 558.11100919 -509.71357626 553.74015045 -505.5078125 549.28515625 C-501.14844167 544.61731489 -497.07246463 539.78972405 -493.06640625 534.8125 C-489.93864071 531.03198339 -486.60757367 527.4528475 -483.28515625 523.84375 C-480.89323953 521.17890459 -478.62776366 518.449338 -476.3828125 515.66015625 C-472.72460235 511.12449182 -468.87288285 506.84064455 -464.90649414 502.57836914 C-461.9160425 499.3457165 -459.08252243 496.03068859 -456.3203125 492.59765625 C-452.68531861 488.07987812 -448.8532096 483.81947109 -444.90625 479.578125 C-441.91589892 476.34553878 -439.08244921 473.03059759 -436.3203125 469.59765625 C-432.68531861 465.07987812 -428.8532096 460.81947109 -424.90625 456.578125 C-421.91589892 453.34553878 -419.08244921 450.03059759 -416.3203125 446.59765625 C-412.68531861 442.07987812 -408.8532096 437.81947109 -404.90625 433.578125 C-401.91589892 430.34553878 -399.08244921 427.03059759 -396.3203125 423.59765625 C-392.68531861 419.07987812 -388.8532096 414.81947109 -384.90625 410.578125 C-381.91589892 407.34553878 -379.08244921 404.03059759 -376.3203125 400.59765625 C-373.12099528 396.62136199 -369.79446305 392.83097327 -366.3203125 389.09765625 C-362.0307349 384.48763986 -358.01620353 379.71982389 -354.06640625 374.8125 C-350.93864071 371.03198339 -347.60757367 367.4528475 -344.28515625 363.84375 C-341.89323953 361.17890459 -339.62776366 358.449338 -337.3828125 355.66015625 C-333.72460235 351.12449182 -329.87288285 346.84064455 -325.90649414 342.57836914 C-322.9160425 339.3457165 -320.08252243 336.03068859 -317.3203125 332.59765625 C-313.68531861 328.07987812 -309.8532096 323.81947109 -305.90625 319.578125 C-302.91589892 316.34553878 -300.08244921 313.03059759 -297.3203125 309.59765625 C-293.68531861 305.07987812 -289.8532096 300.81947109 -285.90625 296.578125 C-282.91589892 293.34553878 -280.08244921 290.03059759 -277.3203125 286.59765625 C-273.68531861 282.07987812 -269.8532096 277.81947109 -265.90625 273.578125 C-262.91589892 270.34553878 -260.08244921 267.03059759 -257.3203125 263.59765625 C-253.68531861 259.07987812 -249.8532096 254.81947109 -245.90625 250.578125 C-242.91589892 247.34553878 -240.08244921 244.03059759 -237.3203125 240.59765625 C-233.68531861 236.07987812 -229.8532096 231.81947109 -225.90625 227.578125 C-222.91589892 224.34553878 -220.08244921 221.03059759 -217.3203125 217.59765625 C-213.684672 213.07907449 -209.85194848 208.81782296 -205.90405273 204.57592773 C-202.93315622 201.36466575 -200.12070173 198.0713781 -197.3828125 194.66015625 C-193.53985771 189.88224287 -189.45199921 185.40770641 -185.26416016 180.93603516 C-181.34124396 176.7233652 -177.70120226 172.3335207 -174.09765625 167.84375 C-171.60204781 164.83446573 -168.98266107 161.95826971 -166.3203125 159.09765625 C-162.84612007 155.3643837 -159.5196254 151.57394514 -156.3203125 147.59765625 C-152.684672 143.07907449 -148.85194848 138.81782296 -144.90405273 134.57592773 C-141.93315622 131.36466575 -139.12070173 128.0713781 -136.3828125 124.66015625 C-132.53921193 119.88143997 -128.45071086 115.40607938 -124.26196289 110.93383789 C-121.14477305 107.58666298 -118.18457452 104.16760602 -115.3203125 100.59765625 C-111.97729291 96.43099415 -108.46916113 92.49345813 -104.8203125 88.59765625 C-100.36156806 83.83676631 -96.1823342 78.93297805 -92.09765625 73.84375 C-89.60204781 70.83446573 -86.98266107 67.95826971 -84.3203125 65.09765625 C-80.84612007 61.3643837 -77.5196254 57.57394514 -74.3203125 53.59765625 C-70.68531861 49.07987812 -66.8532096 44.81947109 -62.90625 40.578125 C-59.91589892 37.34553878 -57.08244921 34.03059759 -54.3203125 30.59765625 C-50.21411525 25.49802418 -45.85183754 20.69541256 -41.40234375 15.8984375 C-39.18804669 13.49654492 -37.02178579 11.06640701 -34.8828125 8.59765625 C-34.05910156 7.66759766 -34.05910156 7.66759766 -33.21875 6.71875 C-32.0919581 5.41255268 -31.03715702 4.04444715 -30.0078125 2.66015625 C-22.72724201 -2.54025124 -8.72927124 -0.02815842 0 0 Z " fill="#C2DD6E" transform="translate(740.8203125,287.90234375)"/>
<path d="M0 0 C0.81783463 0.01797638 1.63566925 0.03595276 2.47828674 0.05447388 C3.34693863 0.05374374 4.21559052 0.05301361 5.11056519 0.05226135 C7.97889368 0.05574205 10.84559389 0.09462544 13.71363831 0.13381958 C15.70331434 0.143146 17.69300186 0.15026292 19.68269348 0.15525818 C24.91743213 0.17434136 30.15147619 0.2234539 35.38594055 0.27877808 C40.72815047 0.32994188 46.07047271 0.35276611 51.41285706 0.37796021 C61.89363084 0.43157105 72.3738893 0.51690014 82.85426331 0.62210083 C80.19575644 4.68022619 77.49022007 8.27207278 74.16676331 11.80960083 C70.78424155 15.46905419 67.53791597 19.17500075 64.41676331 23.05960083 C60.75920067 27.59446244 56.90809303 31.87746266 52.94264221 36.13919067 C49.14027524 40.24989359 45.61155739 44.54485667 42.10035706 48.90725708 C38.9714151 52.68919562 35.63908886 56.26965953 32.31520081 59.87991333 C29.94386436 62.52225966 27.70173333 65.2290425 25.47926331 67.99710083 C21.61272146 72.79270573 17.50574347 77.2908875 13.2983551 81.78347778 C9.37533606 85.99621206 5.73522611 90.38614536 2.13160706 94.87600708 C-0.36400138 97.88529135 -2.98338812 100.76148737 -5.64573669 103.62210083 C-9.11992913 107.35537338 -12.4464238 111.14581194 -15.64573669 115.12210083 C-19.28073059 119.63987896 -23.11283959 123.90028599 -27.05979919 128.14163208 C-30.05015027 131.3742183 -32.88359999 134.68915949 -35.64573669 138.12210083 C-39.28073059 142.63987896 -43.11283959 146.90028599 -47.05979919 151.14163208 C-50.05015027 154.3742183 -52.88359999 157.68915949 -55.64573669 161.12210083 C-59.28137719 165.64068259 -63.11410071 169.90193412 -67.06199646 174.14382935 C-70.03289298 177.35509133 -72.84534746 180.64837898 -75.58323669 184.05960083 C-79.94431267 189.47767008 -84.62294521 194.54421082 -89.36448669 199.62600708 C-92.1038984 202.56409939 -94.75439268 205.57041128 -97.38011169 208.61038208 C-99.55484239 211.0882279 -101.78912071 213.50788958 -104.02073669 215.93460083 C-107.32910583 219.55733988 -110.50586027 223.23902974 -113.58323669 227.05960083 C-114.28768417 227.90391663 -114.99213165 228.74823242 -115.71792603 229.61813354 C-118.17886156 232.58278869 -118.17886156 232.58278869 -120.29071045 235.74911499 C-124.01900722 240.67212501 -127.16657126 244.59388202 -133.48835754 245.67300415 C-138.74566248 246.16078115 -143.98243415 245.97432836 -149.25120544 245.79397583 C-151.18599146 245.77155712 -153.12084623 245.75449315 -155.0557251 245.74252319 C-160.11608881 245.69699063 -165.17223125 245.57938904 -170.23094177 245.44607544 C-175.40573526 245.32268184 -180.58122007 245.2683787 -185.75706482 245.20803833 C-195.8884636 245.07985098 -206.0167474 244.87541531 -216.14573669 244.62210083 C-213.92004 240.80059155 -211.55533247 237.72436935 -208.52073669 234.49710083 C-205.11660307 230.81708952 -201.84735703 227.09294705 -198.70823669 223.18460083 C-195.05067405 218.64973922 -191.19956642 214.36673901 -187.2341156 210.10501099 C-183.43174863 205.99430807 -179.90303077 201.69934499 -176.39183044 197.33694458 C-174.0574308 194.51536588 -171.62583071 191.81619371 -169.14573669 189.12210083 C-165.03194761 184.65224963 -161.17486373 180.0316519 -157.36058044 175.30569458 C-154.48092783 171.81659167 -151.43879794 168.49213162 -148.39183044 165.14944458 C-146.08386072 162.5524769 -143.89017807 159.8880607 -141.70823669 157.18460083 C-137.84748532 152.41069783 -133.77136594 147.88821655 -129.61448669 143.37210083 C-127.20195566 140.68472449 -124.91317459 137.93244639 -122.64573669 135.12210083 C-118.80854638 130.36614664 -114.75188569 125.86705282 -110.61448669 121.37210083 C-108.20195566 118.68472449 -105.91317459 115.93244639 -103.64573669 113.12210083 C-99.80738255 108.36470415 -95.74951311 103.86426165 -91.61058044 99.36819458 C-89.21866372 96.70334917 -86.95318786 93.97378258 -84.70823669 91.18460083 C-81.05067405 86.64973922 -77.19956642 82.36673901 -73.2341156 78.10501099 C-69.43174863 73.99430807 -65.90303077 69.69934499 -62.39183044 65.33694458 C-59.2640649 61.55642797 -55.93299786 57.97729208 -52.61058044 54.36819458 C-50.21866372 51.70334917 -47.95318786 48.97378258 -45.70823669 46.18460083 C-42.05002655 41.6489364 -38.19830704 37.36508913 -34.23191833 33.10281372 C-30.45774211 29.0229615 -26.96134488 24.75772182 -23.47776794 20.42678833 C-20.01159338 16.25808927 -16.32595757 12.31001409 -12.62620544 8.34866333 C-10.1202446 5.7647211 -10.1202446 5.7647211 -8.52970886 2.98716736 C-5.69599111 0.17592187 -3.91534505 0.03567459 0 0 Z " fill="#B4D15B" transform="translate(1032.145736694336,287.3778991699219)"/>
<path d="M0 0 C1.91668891 0.01306922 3.83340134 0.02302713 5.75012207 0.03001404 C10.77471419 0.05663558 15.79787113 0.12530636 20.82189941 0.20294189 C25.95658965 0.27477919 31.09151369 0.30656919 36.2265625 0.34179688 C46.28708604 0.4166836 56.34654829 0.53602533 66.40625 0.68359375 C64.63125149 4.48485089 62.21587699 7.2330995 59.34375 10.24609375 C55.71638008 14.12035272 52.23078427 18.0414525 48.90625 22.18359375 C45.27125611 26.70137188 41.4391471 30.96177891 37.4921875 35.203125 C34.50183642 38.43571122 31.66838671 41.75065241 28.90625 45.18359375 C25.70693062 49.15989069 22.3803796 52.95025448 18.90625 56.68359375 C14.59625895 61.31605036 10.55563604 66.10481891 6.5859375 71.03515625 C4.42867601 73.65634494 2.19314 76.17513656 -0.09375 78.68359375 C-3.20833668 82.10098747 -6.1856162 85.58881725 -9.09375 89.18359375 C-12.70524134 93.64779832 -16.48035694 97.91361489 -20.34765625 102.15625 C-22.65562598 104.75321768 -24.84930863 107.41763388 -27.03125 110.12109375 C-30.89200137 114.89499675 -34.96812075 119.41747803 -39.125 123.93359375 C-41.53753104 126.62097009 -43.8263121 129.37324819 -46.09375 132.18359375 C-49.93210414 136.94099043 -53.98997359 141.44143293 -58.12890625 145.9375 C-60.52082297 148.60234541 -62.78629884 151.331912 -65.03125 154.12109375 C-68.68881264 158.65595536 -72.53992027 162.93895558 -76.50537109 167.20068359 C-80.30773807 171.31138651 -83.83645592 175.60634959 -87.34765625 179.96875 C-90.47542179 183.74926661 -93.80648883 187.3284025 -97.12890625 190.9375 C-99.52082297 193.60234541 -101.78629884 196.331912 -104.03125 199.12109375 C-107.68881264 203.65595536 -111.53992027 207.93895558 -115.50537109 212.20068359 C-119.30206182 216.30524997 -122.82597711 220.59340284 -126.33203125 224.94921875 C-129.50170681 228.78129628 -132.8563928 232.42968344 -136.234375 236.078125 C-138.68736018 238.66242871 -138.68736018 238.66242871 -140.69511414 241.80386353 C-142.23936139 243.64711312 -143.14283968 244.55286497 -145.46759987 245.22686386 C-147.77588598 245.42222365 -150.01543361 245.42610035 -152.33129883 245.36474609 C-153.6344957 245.36606033 -153.6344957 245.36606033 -154.96401978 245.36740112 C-157.82719778 245.36323078 -160.68801414 245.31660634 -163.55078125 245.26953125 C-165.53902405 245.25833711 -167.52728343 245.24979795 -169.51554871 245.24380493 C-174.74219663 245.22092383 -179.96784006 245.16200632 -185.1940918 245.09558105 C-190.52964693 245.0341433 -195.86536478 245.0067867 -201.20117188 244.9765625 C-211.66580531 244.91226278 -222.12969404 244.80989157 -232.59375 244.68359375 C-229.93524313 240.62546839 -227.22970676 237.0336218 -223.90625 233.49609375 C-220.52372824 229.83664039 -217.27740267 226.13069383 -214.15625 222.24609375 C-210.49803985 217.71042932 -206.64632035 213.42658205 -202.67993164 209.16430664 C-199.68948 205.931654 -196.85595993 202.61662609 -194.09375 199.18359375 C-190.45875611 194.66581562 -186.6266471 190.40540859 -182.6796875 186.1640625 C-179.68933642 182.93147628 -176.85588671 179.61653509 -174.09375 176.18359375 C-170.45875611 171.66581562 -166.6266471 167.40540859 -162.6796875 163.1640625 C-159.68933642 159.93147628 -156.85588671 156.61653509 -154.09375 153.18359375 C-150.45875611 148.66581562 -146.6266471 144.40540859 -142.6796875 140.1640625 C-139.68933642 136.93147628 -136.85588671 133.61653509 -134.09375 130.18359375 C-130.45875611 125.66581562 -126.6266471 121.40540859 -122.6796875 117.1640625 C-119.68933642 113.93147628 -116.85588671 110.61653509 -114.09375 107.18359375 C-110.45875611 102.66581562 -106.6266471 98.40540859 -102.6796875 94.1640625 C-99.68933642 90.93147628 -96.85588671 87.61653509 -94.09375 84.18359375 C-90.4581095 79.66501199 -86.62538598 75.40376046 -82.67749023 71.16186523 C-79.70659372 67.95060325 -76.89413923 64.6573156 -74.15625 61.24609375 C-70.31200361 56.46657453 -66.22285955 51.99039031 -62.03320312 47.51757812 C-58.93609535 44.19222098 -55.99760624 40.79648568 -53.15625 37.24609375 C-49.11287299 32.20289988 -44.76475682 27.51715039 -40.33154297 22.8203125 C-36.51410544 18.7501761 -32.98716642 14.55507021 -29.66796875 10.0625 C-28.98347656 9.27746094 -28.29898438 8.49242187 -27.59375 7.68359375 C-27.17672318 7.10954803 -26.75969635 6.53550232 -26.33003235 5.94406128 C-19.42377713 -1.90941639 -9.57762927 -0.19187662 0 0 Z " fill="#B7D45C" transform="translate(397.59375,491.31640625)"/>
<path d="M0 0 C4.73141979 0.84397276 6.76905844 3.8037123 9.6875 7.375 C10.21714355 8.00768799 10.74678711 8.64037598 11.29248047 9.29223633 C15.17226329 13.94083213 18.9748336 18.65308908 22.7890625 23.35546875 C25.92241136 27.10330829 29.23823245 30.67280456 32.546875 34.265625 C34.87716268 36.86307942 37.07247168 39.52405714 39.25 42.25 C42.97146639 46.86884126 46.92762431 51.19389689 51 55.5 C55.86126425 60.64056551 60.47210111 65.88260214 64.890625 71.4140625 C68.43084006 75.75410392 72.21428682 79.87419911 76 84 C79.54419562 81.32954705 82.27879134 78.62217832 85 75.125 C88.69934944 70.50390631 92.57583086 66.12953102 96.625 61.8125 C97.19081787 61.20873535 97.75663574 60.6049707 98.33959961 59.98291016 C98.8888208 59.39687012 99.43804199 58.81083008 100.00390625 58.20703125 C103.89030168 54.05986814 107.61608947 49.79087621 111.30712891 45.46972656 C112.82934067 43.68779854 114.35206974 41.90631399 115.875 40.125 C116.39497559 39.51615967 116.91495117 38.90731934 117.45068359 38.2800293 C120.47944776 34.74299739 123.55179463 31.25573515 126.6875 27.8125 C129.69814479 24.4991692 132.56565178 21.11058071 135.375 17.625 C138.78826003 13.41711858 142.30284292 9.32887361 145.9375 5.3125 C146.64688721 4.51803467 146.64688721 4.51803467 147.37060547 3.70751953 C148.53801045 2.43155818 149.76450558 1.21015094 151 0 C151.66 0 152.32 0 153 0 C157.93690282 10.69457013 162.85689013 21.39676052 167.75878906 32.10742188 C169.16804093 35.18617861 170.58104407 38.26314423 171.99902344 41.33789062 C173.72112401 45.07339864 175.4243997 48.81715517 177.125 52.5625 C177.89602051 54.22599487 177.89602051 54.22599487 178.68261719 55.9230957 C179.36952637 57.44809692 179.36952637 57.44809692 180.0703125 59.00390625 C180.47008301 59.87861572 180.86985352 60.7533252 181.28173828 61.65454102 C182.09145912 64.2986566 182.02727374 65.46048218 181 68 C179.03125 70.41015625 179.03125 70.41015625 176.5 73.0625 C173.01721446 76.77014257 169.68888487 80.53097722 166.5 84.5 C162.66280969 89.25595419 158.60614899 93.75504801 154.46875 98.25 C152.05621896 100.93737634 149.7674379 103.68965444 147.5 106.5 C143.66164586 111.25739668 139.60377641 115.75783918 135.46484375 120.25390625 C133.07292703 122.91875166 130.80745116 125.64831825 128.5625 128.4375 C124.90493736 132.97236161 121.05382973 137.25536183 117.08837891 141.51708984 C113.28601193 145.62779276 109.75729408 149.92275584 106.24609375 154.28515625 C103.9116941 157.10673495 101.48009402 159.80590712 99 162.5 C94.87849602 166.97878606 91.00570363 171.60478783 87.18359375 176.33984375 C83.90659887 180.3320325 80.46764396 184.17330843 77 188 C68.90665075 179.99398905 61.38153415 171.58008789 54.24609375 162.71484375 C51.9116941 159.89326505 49.48009402 157.19409288 47 154.5 C43.72581577 150.94329756 40.59357567 147.32838189 37.5625 143.5625 C34.34056899 139.56776014 30.99344505 135.75445651 27.5 132 C23.21044887 127.38995664 19.19589328 122.62217044 15.24609375 117.71484375 C12.9116941 114.89326505 10.48009402 112.19409288 8 109.5 C3.90648909 105.05272888 0.07557501 100.45282537 -3.71875 95.75 C-6.06718968 92.91900422 -8.50909902 90.20616402 -11 87.5 C-15.89558785 82.17738268 -20.48138432 76.64387406 -25 71 C-25.78632813 70.19304687 -26.57265625 69.38609375 -27.3828125 68.5546875 C-27.91648437 67.71164063 -28.45015625 66.86859375 -29 66 C-27.80096278 61.32354336 -25.72154447 57.00194019 -23.69140625 52.63671875 C-23.36845078 51.93511627 -23.0454953 51.23351379 -22.7127533 50.51065063 C-22.02215714 49.01064297 -21.33027323 47.51122762 -20.63720703 46.01235962 C-18.82509296 42.09230448 -17.02333061 38.16750808 -15.22265625 34.2421875 C-14.68356125 33.06729515 -14.68356125 33.06729515 -14.13357544 31.8686676 C-9.29449363 21.30230591 -4.63152638 10.65879375 0 0 Z " fill="#71932B" transform="translate(502,174)"/>
</svg>
